<svg width="163" height="30" viewBox="0 0 163 30" fill="none" xmlns="http://www.w3.org/2000/svg">
<path d="M6.748 16.9964C7.17733 17.2204 7.51333 17.533 7.756 17.9344C7.99867 18.3264 8.12 18.7744 8.12 19.2784C8.12 20.081 7.83533 20.7484 7.266 21.2804C6.69667 21.8124 6.00133 22.0784 5.18 22.0784H0.98V12.2784H4.872C5.67467 12.2784 6.35133 12.5397 6.902 13.0624C7.462 13.585 7.742 14.229 7.742 14.9944C7.742 15.8344 7.41067 16.5017 6.748 16.9964ZM4.872 13.7904H2.59V16.3664H4.872C5.22667 16.3664 5.52533 16.245 5.768 16.0024C6.01067 15.7504 6.132 15.4424 6.132 15.0784C6.132 14.7144 6.01067 14.411 5.768 14.1684C5.52533 13.9164 5.22667 13.7904 4.872 13.7904ZM2.59 20.5664H5.18C5.55333 20.5664 5.866 20.4357 6.118 20.1744C6.37933 19.9037 6.51 19.577 6.51 19.1944C6.51 18.8117 6.37933 18.4897 6.118 18.2284C5.866 17.9577 5.55333 17.8224 5.18 17.8224H2.59V20.5664ZM12.7935 18.4944L15.4115 22.0784H13.6615L11.9255 19.6844L10.1755 22.0784H8.41148L11.0435 18.4804L8.55148 15.0784H10.3015L11.9115 17.2904L13.5215 15.0784H15.2855L12.7935 18.4944ZM21.8431 21.1964C21.1337 21.9057 20.2611 22.2604 19.2251 22.2604C18.1891 22.2604 17.3164 21.9057 16.6071 21.1964C15.8884 20.4777 15.5291 19.605 15.5291 18.5784C15.5291 17.5517 15.8884 16.679 16.6071 15.9604C17.3164 15.251 18.1891 14.8964 19.2251 14.8964C20.2611 14.8964 21.1337 15.251 21.8431 15.9604C22.5617 16.679 22.9211 17.5517 22.9211 18.5784C22.9211 19.605 22.5617 20.4777 21.8431 21.1964ZM17.0411 18.5784C17.0411 19.213 17.2511 19.7404 17.6711 20.1604C18.0911 20.5804 18.6091 20.7904 19.2251 20.7904C19.8411 20.7904 20.3591 20.5804 20.7791 20.1604C21.1991 19.7404 21.4091 19.213 21.4091 18.5784C21.4091 17.9437 21.1991 17.4164 20.7791 16.9964C20.3591 16.5764 19.8411 16.3664 19.2251 16.3664C18.6091 16.3664 18.0911 16.5764 17.6711 16.9964C17.2511 17.4164 17.0411 17.9437 17.0411 18.5784ZM30.1748 15.0784V20.6504H31.1128V23.9544H29.6288V22.0784H24.8268V23.9544H23.3428V20.6504H24.1968C24.6261 20.053 24.8408 19.2084 24.8408 18.1164V15.0784H30.1748ZM25.8628 20.6504H28.6908V16.4644H26.3248V18.1164C26.3248 19.1244 26.1708 19.969 25.8628 20.6504ZM38.319 10.8784L32.719 23.4784H31.949L37.549 10.8784H38.319ZM39.7945 12.2784H43.4065C44.3305 12.2784 45.1005 12.5864 45.7165 13.2024C46.3418 13.8184 46.6545 14.5837 46.6545 15.4984C46.6545 16.4037 46.3418 17.169 45.7165 17.7944C45.1005 18.4104 44.3305 18.7184 43.4065 18.7184H41.4045V22.0784H39.7945V12.2784ZM41.4045 17.2064H43.4065C43.8825 17.2064 44.2745 17.0477 44.5825 16.7304C44.8905 16.4037 45.0445 15.993 45.0445 15.4984C45.0445 15.0037 44.8905 14.5977 44.5825 14.2804C44.2745 13.9537 43.8825 13.7904 43.4065 13.7904H41.4045V17.2064ZM54.2241 19.2224H48.6521C48.7641 19.745 49.0161 20.151 49.4081 20.4404C49.8094 20.7297 50.3041 20.8744 50.8921 20.8744C51.6854 20.8744 52.2874 20.585 52.6981 20.0064L53.9441 20.7344C53.2627 21.7517 52.2407 22.2604 50.8781 22.2604C49.7487 22.2604 48.8294 21.915 48.1201 21.2244C47.4201 20.5244 47.0701 19.6424 47.0701 18.5784C47.0701 17.5424 47.4154 16.6697 48.1061 15.9604C48.7874 15.251 49.6741 14.8964 50.7661 14.8964C51.7834 14.8964 52.6234 15.2557 53.2861 15.9744C53.9487 16.693 54.2801 17.5657 54.2801 18.5924C54.2801 18.779 54.2614 18.989 54.2241 19.2224ZM48.6381 17.9904H52.7541C52.6514 17.4397 52.4181 17.015 52.0541 16.7164C51.6994 16.4177 51.2654 16.2684 50.7521 16.2684C50.1921 16.2684 49.7254 16.4224 49.3521 16.7304C48.9787 17.0384 48.7407 17.4584 48.6381 17.9904ZM55.6105 15.0784H60.3005V16.5344H57.1225V22.0784H55.6105V15.0784ZM62.8094 19.5164L66.3934 15.0784H67.5554V22.0784H66.0714V17.6264L62.4874 22.0784H61.3254V15.0784H62.8094V19.5164ZM72.6137 22.2604C71.5591 22.2604 70.6771 21.9057 69.9677 21.1964C69.2677 20.4777 68.9177 19.605 68.9177 18.5784C68.9177 17.533 69.2677 16.6604 69.9677 15.9604C70.6771 15.251 71.5591 14.8964 72.6137 14.8964C73.2951 14.8964 73.9157 15.0597 74.4757 15.3864C75.0357 15.713 75.4557 16.1517 75.7357 16.7024L74.4337 17.4584C74.2751 17.1224 74.0324 16.861 73.7057 16.6744C73.3884 16.4784 73.0197 16.3804 72.5997 16.3804C71.9837 16.3804 71.4657 16.5904 71.0457 17.0104C70.6351 17.4397 70.4297 17.9624 70.4297 18.5784C70.4297 19.1944 70.6351 19.717 71.0457 20.1464C71.4657 20.5664 71.9837 20.7764 72.5997 20.7764C73.0104 20.7764 73.3791 20.683 73.7057 20.4964C74.0417 20.3004 74.2937 20.0344 74.4617 19.6984L75.7637 20.4404C75.4651 21.0004 75.0311 21.4437 74.4617 21.7704C73.9017 22.097 73.2857 22.2604 72.6137 22.2604ZM76.0463 15.0784H82.1363V16.5344H79.8543V22.0784H78.3423V16.5344H76.0463V15.0784ZM87.1213 14.8964C88.0733 14.8964 88.8947 15.2557 89.5853 15.9744C90.2667 16.6837 90.6073 17.5517 90.6073 18.5784C90.6073 19.6144 90.2667 20.487 89.5853 21.1964C88.904 21.9057 88.0827 22.2604 87.1213 22.2604C86.0667 22.2604 85.25 21.8684 84.6713 21.0844V24.8784H83.1593V15.0784H84.6713V16.0864C85.2407 15.293 86.0573 14.8964 87.1213 14.8964ZM85.3013 20.1884C85.7213 20.6084 86.2487 20.8184 86.8833 20.8184C87.518 20.8184 88.0453 20.6084 88.4653 20.1884C88.8853 19.759 89.0953 19.2224 89.0953 18.5784C89.0953 17.9344 88.8853 17.4024 88.4653 16.9824C88.0453 16.553 87.518 16.3384 86.8833 16.3384C86.2487 16.3384 85.7213 16.553 85.3013 16.9824C84.8813 17.4024 84.6713 17.9344 84.6713 18.5784C84.6713 19.213 84.8813 19.7497 85.3013 20.1884ZM97.5217 16.0724V15.0784H99.0337V22.0784H97.5217V21.0704C96.9524 21.8637 96.1357 22.2604 95.0717 22.2604C94.1104 22.2604 93.289 21.9057 92.6077 21.1964C91.9264 20.487 91.5857 19.6144 91.5857 18.5784C91.5857 17.5424 91.9264 16.6697 92.6077 15.9604C93.289 15.251 94.1104 14.8964 95.0717 14.8964C96.1357 14.8964 96.9524 15.2884 97.5217 16.0724ZM93.7277 20.1884C94.1477 20.6084 94.675 20.8184 95.3097 20.8184C95.9444 20.8184 96.4717 20.6084 96.8917 20.1884C97.3117 19.759 97.5217 19.2224 97.5217 18.5784C97.5217 17.9344 97.3117 17.4024 96.8917 16.9824C96.4717 16.553 95.9444 16.3384 95.3097 16.3384C94.675 16.3384 94.1477 16.553 93.7277 16.9824C93.3077 17.4024 93.0977 17.9344 93.0977 18.5784C93.0977 19.213 93.3077 19.7497 93.7277 20.1884ZM106.816 15.0784V20.6504H107.964V23.9544H106.48V22.0784H100.796V15.0784H102.308V20.6504H105.304V15.0784H106.816ZM110.675 19.5164L114.259 15.0784H115.421V22.0784H113.937V17.6264L110.353 22.0784H109.191V15.0784H110.675V19.5164ZM119.471 15.0784H122.593V22.0784H121.109V19.7264H120.269L118.491 22.0784H116.713L118.603 19.5864C118.118 19.4277 117.726 19.1477 117.427 18.7464C117.138 18.345 116.993 17.897 116.993 17.4024C116.993 16.7584 117.222 16.2124 117.679 15.7644C118.136 15.307 118.734 15.0784 119.471 15.0784ZM119.555 18.4244H121.109V16.4504H119.555C119.238 16.4504 118.976 16.5437 118.771 16.7304C118.575 16.9077 118.477 17.1457 118.477 17.4444C118.477 17.743 118.575 17.981 118.771 18.1584C118.976 18.3357 119.238 18.4244 119.555 18.4244Z" fill="white"/>
<path d="M39.8 2V8.34H40.55V10.34H39.85V9H34.85V10.34H34.15V8.34H34.72C35.18 7.8 35.41 6.96667 35.41 5.84V2H39.8ZM35.55 8.34H39.1V2.66H36.11V5.86C36.11 6.96 35.9233 7.78667 35.55 8.34ZM45.599 8.37C45.0857 8.87 44.4657 9.12 43.739 9.12C42.999 9.12 42.3757 8.87 41.869 8.37C41.3623 7.86333 41.109 7.24 41.109 6.5C41.109 5.76 41.3623 5.14 41.869 4.64C42.3757 4.13333 42.999 3.88 43.739 3.88C44.4723 3.88 45.0923 4.13333 45.599 4.64C46.1123 5.14 46.369 5.76 46.369 6.5C46.369 7.23333 46.1123 7.85667 45.599 8.37ZM42.339 7.91C42.719 8.29 43.1857 8.48 43.739 8.48C44.2923 8.48 44.759 8.29 45.139 7.91C45.519 7.51667 45.709 7.04667 45.709 6.5C45.709 5.94667 45.519 5.48 45.139 5.1C44.759 4.71333 44.2923 4.52 43.739 4.52C43.1857 4.52 42.719 4.71333 42.339 5.1C41.959 5.48 41.769 5.94667 41.769 6.5C41.769 7.04667 41.959 7.51667 42.339 7.91ZM49.6934 9.12C48.9801 9.12 48.3801 8.88333 47.8934 8.41C47.4134 7.93 47.1734 7.31 47.1734 6.55C47.1734 5.69667 47.3001 5.04333 47.5534 4.59C47.8068 4.13 48.3201 3.71333 49.0934 3.34C49.3401 3.22667 49.5334 3.14 49.6734 3.08C49.9068 2.98667 50.0901 2.90667 50.2234 2.84C50.8034 2.57333 51.0968 2.24333 51.1034 1.85L51.6234 2.15C51.5901 2.31667 51.5368 2.46667 51.4634 2.6C51.3768 2.74667 51.2901 2.86333 51.2034 2.95C51.1234 3.03667 50.9968 3.13 50.8234 3.23C50.7101 3.29667 50.5734 3.37 50.4134 3.45L49.9134 3.66L49.4434 3.86C48.9834 4.06 48.6401 4.27 48.4134 4.49C48.1934 4.70333 48.0368 4.98333 47.9434 5.33C48.1568 5.04333 48.4368 4.82667 48.7834 4.68C49.1301 4.52667 49.4801 4.45 49.8334 4.45C50.5001 4.45 51.0501 4.67 51.4834 5.11C51.9234 5.54333 52.1434 6.1 52.1434 6.78C52.1434 7.45333 51.9101 8.01333 51.4434 8.46C50.9834 8.9 50.4001 9.12 49.6934 9.12ZM48.3934 7.97C48.7401 8.29667 49.1734 8.46 49.6934 8.46C50.2134 8.46 50.6401 8.30333 50.9734 7.99C51.3134 7.67 51.4834 7.26667 51.4834 6.78C51.4834 6.28667 51.3234 5.88333 51.0034 5.57C50.6901 5.25 50.2701 5.09 49.7434 5.09C49.2701 5.09 48.8401 5.24 48.4534 5.54C48.0668 5.82667 47.8734 6.22 47.8734 6.72C47.8734 7.22667 48.0468 7.64333 48.3934 7.97ZM55.8273 3.88C56.5406 3.88 57.1473 4.13333 57.6473 4.64C58.1539 5.14667 58.4073 5.76667 58.4073 6.5C58.4073 7.23333 58.1539 7.85333 57.6473 8.36C57.1473 8.86667 56.5406 9.12 55.8273 9.12C54.9406 9.12 54.2673 8.75333 53.8073 8.02V11H53.1473V4H53.8073V4.98C54.2673 4.24667 54.9406 3.88 55.8273 3.88ZM54.3773 7.91C54.7573 8.29 55.2239 8.48 55.7773 8.48C56.3306 8.48 56.7973 8.29 57.1773 7.91C57.5573 7.51667 57.7473 7.04667 57.7473 6.5C57.7473 5.94667 57.5573 5.48 57.1773 5.1C56.7973 4.71333 56.3306 4.52 55.7773 4.52C55.2239 4.52 54.7573 4.71333 54.3773 5.1C53.9973 5.48 53.8073 5.94667 53.8073 6.5C53.8073 7.04667 53.9973 7.51667 54.3773 7.91ZM63.6947 8.37C63.1814 8.87 62.5614 9.12 61.8347 9.12C61.0947 9.12 60.4714 8.87 59.9647 8.37C59.458 7.86333 59.2047 7.24 59.2047 6.5C59.2047 5.76 59.458 5.14 59.9647 4.64C60.4714 4.13333 61.0947 3.88 61.8347 3.88C62.568 3.88 63.188 4.13333 63.6947 4.64C64.208 5.14 64.4647 5.76 64.4647 6.5C64.4647 7.23333 64.208 7.85667 63.6947 8.37ZM60.4347 7.91C60.8147 8.29 61.2814 8.48 61.8347 8.48C62.388 8.48 62.8547 8.29 63.2347 7.91C63.6147 7.51667 63.8047 7.04667 63.8047 6.5C63.8047 5.94667 63.6147 5.48 63.2347 5.1C62.8547 4.71333 62.388 4.52 61.8347 4.52C61.2814 4.52 60.8147 4.71333 60.4347 5.1C60.0547 5.48 59.8647 5.94667 59.8647 6.5C59.8647 7.04667 60.0547 7.51667 60.4347 7.91ZM68.0691 4H72.2691V9H71.6091V4.64H68.7291V9H68.0691V4ZM77.8548 8.37C77.3415 8.87 76.7215 9.12 75.9948 9.12C75.2548 9.12 74.6315 8.87 74.1248 8.37C73.6182 7.86333 73.3648 7.24 73.3648 6.5C73.3648 5.76 73.6182 5.14 74.1248 4.64C74.6315 4.13333 75.2548 3.88 75.9948 3.88C76.7282 3.88 77.3482 4.13333 77.8548 4.64C78.3682 5.14 78.6248 5.76 78.6248 6.5C78.6248 7.23333 78.3682 7.85667 77.8548 8.37ZM74.5948 7.91C74.9748 8.29 75.4415 8.48 75.9948 8.48C76.5482 8.48 77.0148 8.29 77.3948 7.91C77.7748 7.51667 77.9648 7.04667 77.9648 6.5C77.9648 5.94667 77.7748 5.48 77.3948 5.1C77.0148 4.71333 76.5482 4.52 75.9948 4.52C75.4415 4.52 74.9748 4.71333 74.5948 5.1C74.2148 5.48 74.0248 5.94667 74.0248 6.5C74.0248 7.04667 74.2148 7.51667 74.5948 7.91ZM82.9289 6.4L85.1689 9H84.3689L82.3289 6.59V9H81.6689V6.59L79.6289 9H78.8289L81.0689 6.4L78.9289 4H79.7289L81.6689 6.22V4H82.3289V6.22L84.2689 4H85.0689L82.9289 6.4ZM89.9668 4.98V4H90.6268V9H89.9668V8.02C89.5068 8.75333 88.8335 9.12 87.9468 9.12C87.2335 9.12 86.6235 8.86667 86.1168 8.36C85.6168 7.85333 85.3668 7.23333 85.3668 6.5C85.3668 5.76667 85.6168 5.14667 86.1168 4.64C86.6235 4.13333 87.2335 3.88 87.9468 3.88C88.8335 3.88 89.5068 4.24667 89.9668 4.98ZM86.5968 7.91C86.9768 8.29 87.4435 8.48 87.9968 8.48C88.5501 8.48 89.0168 8.29 89.3968 7.91C89.7768 7.51667 89.9668 7.04667 89.9668 6.5C89.9668 5.94667 89.7768 5.48 89.3968 5.1C89.0168 4.71333 88.5501 4.52 87.9968 4.52C87.4435 4.52 86.9768 4.71333 86.5968 5.1C86.2168 5.48 86.0268 5.94667 86.0268 6.5C86.0268 7.04667 86.2168 7.51667 86.5968 7.91ZM92.5442 4H96.1242V9H95.4642V4.64H93.2042V6.87C93.2042 7.70333 93.0442 8.27667 92.7242 8.59C92.4109 8.90333 91.9776 9.04 91.4242 9V8.38C91.8109 8.42 92.0942 8.32667 92.2742 8.1C92.4542 7.87333 92.5442 7.46333 92.5442 6.87V4ZM101.712 8.37C101.199 8.87 100.579 9.12 99.8523 9.12C99.1123 9.12 98.4889 8.87 97.9823 8.37C97.4756 7.86333 97.2223 7.24 97.2223 6.5C97.2223 5.76 97.4756 5.14 97.9823 4.64C98.4889 4.13333 99.1123 3.88 99.8523 3.88C100.586 3.88 101.206 4.13333 101.712 4.64C102.226 5.14 102.482 5.76 102.482 6.5C102.482 7.23333 102.226 7.85667 101.712 8.37ZM98.4523 7.91C98.8323 8.29 99.2989 8.48 99.8523 8.48C100.406 8.48 100.872 8.29 101.252 7.91C101.632 7.51667 101.822 7.04667 101.822 6.5C101.822 5.94667 101.632 5.48 101.252 5.1C100.872 4.71333 100.406 4.52 99.8523 4.52C99.2989 4.52 98.8323 4.71333 98.4523 5.1C98.0723 5.48 97.8823 5.94667 97.8823 6.5C97.8823 7.04667 98.0723 7.51667 98.4523 7.91ZM106.767 6.43C107.313 6.63 107.587 7.02 107.587 7.6C107.587 8.01333 107.447 8.35 107.167 8.61C106.893 8.87 106.51 9 106.017 9H103.587V4H105.817C106.297 4 106.67 4.12333 106.937 4.37C107.21 4.61667 107.347 4.94 107.347 5.34C107.347 5.84 107.153 6.20333 106.767 6.43ZM105.817 4.64H104.247V6.16H105.817C106.397 6.16 106.687 5.9 106.687 5.38C106.687 5.14667 106.61 4.96667 106.457 4.84C106.31 4.70667 106.097 4.64 105.817 4.64ZM104.247 8.36H106.017C106.31 8.36 106.533 8.29 106.687 8.15C106.847 8.01 106.927 7.81333 106.927 7.56C106.927 7.32 106.847 7.13333 106.687 7C106.533 6.86667 106.31 6.8 106.017 6.8H104.247V8.36ZM112.887 4.98V4H113.547V9H112.887V8.02C112.427 8.75333 111.753 9.12 110.867 9.12C110.153 9.12 109.543 8.86667 109.037 8.36C108.537 7.85333 108.287 7.23333 108.287 6.5C108.287 5.76667 108.537 5.14667 109.037 4.64C109.543 4.13333 110.153 3.88 110.867 3.88C111.753 3.88 112.427 4.24667 112.887 4.98ZM109.517 7.91C109.897 8.29 110.363 8.48 110.917 8.48C111.47 8.48 111.937 8.29 112.317 7.91C112.697 7.51667 112.887 7.04667 112.887 6.5C112.887 5.94667 112.697 5.48 112.317 5.1C111.937 4.71333 111.47 4.52 110.917 4.52C110.363 4.52 109.897 4.71333 109.517 5.1C109.137 5.48 108.947 5.94667 108.947 6.5C108.947 7.04667 109.137 7.51667 109.517 7.91ZM114.344 4H118.544V4.64H116.774V9H116.114V4.64H114.344V4ZM120.008 5.9H121.378C121.838 5.9 122.232 6.04667 122.558 6.34C122.885 6.62667 123.048 6.99667 123.048 7.45C123.048 7.91 122.885 8.28333 122.558 8.57C122.245 8.85667 121.852 9 121.378 9H119.348V4H120.008V5.9ZM120.008 8.36H121.378C121.665 8.36 121.905 8.27667 122.098 8.11C122.292 7.93667 122.388 7.71667 122.388 7.45C122.388 7.18333 122.292 6.96667 122.098 6.8C121.905 6.62667 121.665 6.54 121.378 6.54H120.008V8.36Z" fill="white"/>
<rect x="133.5" y="0.5" width="29" height="29" rx="14.5" fill="white" stroke="#C1C1C1"/>
<circle cx="148.202" cy="11.1553" r="3.38444" stroke="#BEBEBE" stroke-width="1.0625" stroke-linecap="round" stroke-linejoin="round"/>
<path fill-rule="evenodd" clip-rule="evenodd" d="M142.833 19.2468C142.832 19.0089 142.886 18.7739 142.989 18.5596C143.313 17.9112 144.227 17.5676 144.986 17.412C145.533 17.2952 146.088 17.2172 146.646 17.1785C147.679 17.0878 148.718 17.0878 149.751 17.1785C150.309 17.2177 150.864 17.2956 151.411 17.412C152.17 17.5676 153.084 17.8788 153.408 18.5596C153.616 18.9964 153.616 19.5037 153.408 19.9406C153.084 20.6213 152.17 20.9325 151.411 21.0817C150.865 21.2033 150.31 21.2834 149.751 21.3216C148.91 21.3929 148.065 21.4059 147.223 21.3605C147.028 21.3605 146.84 21.3605 146.646 21.3216C146.089 21.2839 145.536 21.2037 144.992 21.0817C144.227 20.9325 143.32 20.6213 142.989 19.9406C142.886 19.7237 142.833 19.4868 142.833 19.2468Z" stroke="#BEBEBE" stroke-width="1.0625" stroke-linecap="round" stroke-linejoin="round"/>
</svg>
