<svg width="408" height="179" viewBox="0 0 408 179" fill="none" xmlns="http://www.w3.org/2000/svg">
<rect width="408" height="179" rx="10" fill="white"/>
<circle cx="36" cy="36" r="21" fill="#F1F9FF"/>
<path d="M35.0877 29.188L31.8424 46.521L35.8185 46.4842L38.3183 32.1237L35.0877 29.188Z" fill="#0063A9"/>
<path d="M39.1321 27.0929L38.6529 30.0285L33.6412 25.479H37.6914C38.5849 25.479 39.2711 26.2448 39.1321 27.0929Z" fill="#DD0613"/>
<path d="M68.35 31.5V18.9H70.024V31.5H68.35ZM73.915 24.93C73.915 25.506 74.509 25.956 75.697 26.28C76.141 26.376 76.513 26.478 76.813 26.586C77.125 26.682 77.461 26.832 77.821 27.036C78.193 27.24 78.475 27.51 78.667 27.846C78.859 28.182 78.955 28.578 78.955 29.034C78.955 29.85 78.637 30.504 78.001 30.996C77.365 31.488 76.561 31.734 75.589 31.734C74.725 31.734 73.975 31.548 73.339 31.176C72.715 30.792 72.271 30.276 72.007 29.628L73.357 28.854C73.501 29.286 73.771 29.628 74.167 29.88C74.563 30.132 75.037 30.258 75.589 30.258C76.129 30.258 76.561 30.156 76.885 29.952C77.209 29.748 77.371 29.442 77.371 29.034C77.371 28.422 76.777 27.978 75.589 27.702C75.193 27.594 74.893 27.51 74.689 27.45C74.485 27.39 74.203 27.282 73.843 27.126C73.495 26.97 73.231 26.808 73.051 26.64C72.871 26.46 72.703 26.226 72.547 25.938C72.403 25.638 72.331 25.308 72.331 24.948C72.331 24.168 72.631 23.526 73.231 23.022C73.843 22.518 74.605 22.266 75.517 22.266C76.249 22.266 76.897 22.434 77.461 22.77C78.037 23.094 78.469 23.55 78.757 24.138L77.443 24.876C77.119 24.108 76.477 23.724 75.517 23.724C75.061 23.724 74.677 23.832 74.365 24.048C74.065 24.264 73.915 24.558 73.915 24.93ZM83.8892 26.856L88.3352 31.5H86.3912L82.2872 27.234V31.5H80.7212V18.9H82.2872V26.478L86.1752 22.5H88.1912L83.8892 26.856ZM97.6053 27.72H90.0633C90.2193 28.512 90.5853 29.136 91.1613 29.592C91.7373 30.036 92.4573 30.258 93.3213 30.258C94.5093 30.258 95.3733 29.82 95.9133 28.944L97.2453 29.7C96.3573 31.056 95.0373 31.734 93.2853 31.734C91.8693 31.734 90.7053 31.29 89.7933 30.402C88.9053 29.49 88.4613 28.356 88.4613 27C88.4613 25.632 88.8993 24.504 89.7753 23.616C90.6513 22.716 91.7853 22.266 93.1773 22.266C94.4973 22.266 95.5713 22.734 96.3993 23.67C97.2393 24.582 97.6593 25.698 97.6593 27.018C97.6593 27.246 97.6413 27.48 97.6053 27.72ZM93.1773 23.742C92.3493 23.742 91.6533 23.976 91.0893 24.444C90.5373 24.912 90.1953 25.548 90.0633 26.352H96.0753C95.9433 25.524 95.6133 24.882 95.0853 24.426C94.5573 23.97 93.9213 23.742 93.1773 23.742ZM103.941 22.266C104.997 22.266 105.843 22.602 106.479 23.274C107.115 23.934 107.433 24.834 107.433 25.974V31.5H105.867V26.064C105.867 25.344 105.669 24.78 105.273 24.372C104.877 23.964 104.331 23.76 103.635 23.76C102.831 23.76 102.195 24.012 101.727 24.516C101.259 25.008 101.025 25.746 101.025 26.73V31.5H99.4595V22.5H101.025V23.796C101.649 22.776 102.621 22.266 103.941 22.266ZM117.072 24.048V18.9H118.638V31.5H117.072V29.952C116.304 31.14 115.17 31.734 113.67 31.734C112.398 31.734 111.324 31.278 110.448 30.366C109.56 29.442 109.116 28.32 109.116 27C109.116 25.692 109.56 24.576 110.448 23.652C111.336 22.728 112.41 22.266 113.67 22.266C115.17 22.266 116.304 22.86 117.072 24.048ZM113.868 30.222C114.78 30.222 115.542 29.916 116.154 29.304C116.766 28.668 117.072 27.9 117.072 27C117.072 26.088 116.766 25.326 116.154 24.714C115.542 24.09 114.78 23.778 113.868 23.778C112.968 23.778 112.212 24.09 111.6 24.714C110.988 25.326 110.682 26.088 110.682 27C110.682 27.9 110.988 28.668 111.6 29.304C112.212 29.916 112.968 30.222 113.868 30.222ZM129.65 27.72H122.108C122.264 28.512 122.63 29.136 123.206 29.592C123.782 30.036 124.502 30.258 125.366 30.258C126.554 30.258 127.418 29.82 127.958 28.944L129.29 29.7C128.402 31.056 127.082 31.734 125.33 31.734C123.914 31.734 122.75 31.29 121.838 30.402C120.95 29.49 120.506 28.356 120.506 27C120.506 25.632 120.944 24.504 121.82 23.616C122.696 22.716 123.83 22.266 125.222 22.266C126.542 22.266 127.616 22.734 128.444 23.67C129.284 24.582 129.704 25.698 129.704 27.018C129.704 27.246 129.686 27.48 129.65 27.72ZM125.222 23.742C124.394 23.742 123.698 23.976 123.134 24.444C122.582 24.912 122.24 25.548 122.108 26.352H128.12C127.988 25.524 127.658 24.882 127.13 24.426C126.602 23.97 125.966 23.742 125.222 23.742ZM133.07 22.5V24.012C133.586 22.896 134.522 22.338 135.878 22.338V23.976C135.11 23.94 134.45 24.144 133.898 24.588C133.346 25.032 133.07 25.746 133.07 26.73V31.5H131.504V22.5H133.07ZM146.393 22.266C147.449 22.266 148.295 22.602 148.931 23.274C149.567 23.934 149.885 24.834 149.885 25.974V31.5H148.319V26.064C148.319 25.344 148.121 24.78 147.725 24.372C147.329 23.964 146.783 23.76 146.087 23.76C145.283 23.76 144.647 24.012 144.179 24.516C143.711 25.008 143.477 25.746 143.477 26.73V31.5H141.911V18.9H143.477V23.796C144.101 22.776 145.073 22.266 146.393 22.266ZM159.667 30.366C158.755 31.278 157.633 31.734 156.301 31.734C154.969 31.734 153.847 31.278 152.935 30.366C152.023 29.454 151.567 28.332 151.567 27C151.567 25.668 152.023 24.546 152.935 23.634C153.847 22.722 154.969 22.266 156.301 22.266C157.633 22.266 158.755 22.722 159.667 23.634C160.591 24.558 161.053 25.68 161.053 27C161.053 28.32 160.591 29.442 159.667 30.366ZM156.301 30.204C157.201 30.204 157.957 29.898 158.569 29.286C159.181 28.674 159.487 27.912 159.487 27C159.487 26.088 159.181 25.326 158.569 24.714C157.957 24.102 157.201 23.796 156.301 23.796C155.413 23.796 154.663 24.102 154.051 24.714C153.439 25.326 153.133 26.088 153.133 27C153.133 27.912 153.439 28.674 154.051 29.286C154.663 29.898 155.413 30.204 156.301 30.204ZM172.619 22.266C173.639 22.266 174.455 22.596 175.067 23.256C175.691 23.916 176.003 24.798 176.003 25.902V31.5H174.437V25.956C174.437 25.272 174.257 24.738 173.897 24.354C173.549 23.958 173.069 23.76 172.457 23.76C171.761 23.76 171.215 23.994 170.819 24.462C170.435 24.918 170.243 25.596 170.243 26.496V31.5H168.677V25.956C168.677 25.272 168.503 24.738 168.155 24.354C167.819 23.958 167.357 23.76 166.769 23.76C166.085 23.76 165.527 24 165.095 24.48C164.675 24.948 164.465 25.62 164.465 26.496V31.5H162.899V22.5H164.465V23.706C165.077 22.746 165.971 22.266 167.147 22.266C168.359 22.266 169.241 22.776 169.793 23.796C170.417 22.776 171.359 22.266 172.619 22.266ZM186.814 27.72H179.272C179.428 28.512 179.794 29.136 180.37 29.592C180.946 30.036 181.666 30.258 182.53 30.258C183.718 30.258 184.582 29.82 185.122 28.944L186.454 29.7C185.566 31.056 184.246 31.734 182.494 31.734C181.078 31.734 179.914 31.29 179.002 30.402C178.114 29.49 177.67 28.356 177.67 27C177.67 25.632 178.108 24.504 178.984 23.616C179.86 22.716 180.994 22.266 182.386 22.266C183.706 22.266 184.78 22.734 185.608 23.67C186.448 24.582 186.868 25.698 186.868 27.018C186.868 27.246 186.85 27.48 186.814 27.72ZM182.386 23.742C181.558 23.742 180.862 23.976 180.298 24.444C179.746 24.912 179.404 25.548 179.272 26.352H185.284C185.152 25.524 184.822 24.882 184.294 24.426C183.766 23.97 183.13 23.742 182.386 23.742Z" fill="black"/>
<path d="M72.868 51.744C72.252 52.344 71.508 52.644 70.636 52.644C69.748 52.644 69 52.344 68.392 51.744C67.784 51.136 67.48 50.388 67.48 49.5C67.48 48.612 67.784 47.868 68.392 47.268C69 46.66 69.748 46.356 70.636 46.356C71.516 46.356 72.26 46.66 72.868 47.268C73.484 47.868 73.792 48.612 73.792 49.5C73.792 50.38 73.484 51.128 72.868 51.744ZM68.956 51.192C69.412 51.648 69.972 51.876 70.636 51.876C71.3 51.876 71.86 51.648 72.316 51.192C72.772 50.72 73 50.156 73 49.5C73 48.836 72.772 48.276 72.316 47.82C71.86 47.356 71.3 47.124 70.636 47.124C69.972 47.124 69.412 47.356 68.956 47.82C68.5 48.276 68.272 48.836 68.272 49.5C68.272 50.156 68.5 50.72 68.956 51.192ZM74.163 46.5H79.203V47.268H77.079V52.5H76.287V47.268H74.163V46.5ZM81.8001 49.38L85.0161 52.5H83.9601L80.9601 49.608V52.5H80.1681V46.5H80.9601V49.152L83.8161 46.5H84.8961L81.8001 49.38ZM89.3138 46.356C90.1698 46.356 90.8978 46.66 91.4978 47.268C92.1058 47.876 92.4098 48.62 92.4098 49.5C92.4098 50.38 92.1058 51.124 91.4978 51.732C90.8978 52.34 90.1698 52.644 89.3138 52.644C88.2498 52.644 87.4418 52.204 86.8898 51.324V54.9H86.0978V46.5H86.8898V47.676C87.4418 46.796 88.2498 46.356 89.3138 46.356ZM87.5738 51.192C88.0298 51.648 88.5898 51.876 89.2538 51.876C89.9178 51.876 90.4778 51.648 90.9338 51.192C91.3898 50.72 91.6178 50.156 91.6178 49.5C91.6178 48.836 91.3898 48.276 90.9338 47.82C90.4778 47.356 89.9178 47.124 89.2538 47.124C88.5898 47.124 88.0298 47.356 87.5738 47.82C87.1178 48.276 86.8898 48.836 86.8898 49.5C86.8898 50.156 87.1178 50.72 87.5738 51.192ZM94.5187 48.78H96.1627C96.7147 48.78 97.1867 48.956 97.5787 49.308C97.9707 49.652 98.1667 50.096 98.1667 50.64C98.1667 51.192 97.9707 51.64 97.5787 51.984C97.2027 52.328 96.7307 52.5 96.1627 52.5H93.7267V46.5H94.5187V48.78ZM99.0067 52.5V46.5H99.7987V52.5H99.0067ZM94.5187 51.732H96.1627C96.5067 51.732 96.7947 51.632 97.0267 51.432C97.2587 51.224 97.3747 50.96 97.3747 50.64C97.3747 50.32 97.2587 50.06 97.0267 49.86C96.7947 49.652 96.5067 49.548 96.1627 49.548H94.5187V51.732ZM100.765 46.5H105.805V47.268H103.681V52.5H102.889V47.268H100.765V46.5ZM107.562 48.78H109.206C109.758 48.78 110.23 48.956 110.622 49.308C111.014 49.652 111.21 50.096 111.21 50.64C111.21 51.192 111.014 51.64 110.622 51.984C110.246 52.328 109.774 52.5 109.206 52.5H106.77V46.5H107.562V48.78ZM107.562 51.732H109.206C109.55 51.732 109.838 51.632 110.07 51.432C110.302 51.224 110.418 50.96 110.418 50.64C110.418 50.32 110.302 50.06 110.07 49.86C109.838 49.652 109.55 49.548 109.206 49.548H107.562V51.732ZM119.222 49.416C119.878 49.656 120.206 50.124 120.206 50.82C120.206 51.316 120.038 51.72 119.702 52.032C119.374 52.344 118.914 52.5 118.322 52.5H115.406V46.5H118.082C118.658 46.5 119.106 46.648 119.426 46.944C119.754 47.24 119.918 47.628 119.918 48.108C119.918 48.708 119.686 49.144 119.222 49.416ZM118.082 47.268H116.198V49.092H118.082C118.778 49.092 119.126 48.78 119.126 48.156C119.126 47.876 119.034 47.66 118.85 47.508C118.674 47.348 118.418 47.268 118.082 47.268ZM116.198 51.732H118.322C118.674 51.732 118.942 51.648 119.126 51.48C119.318 51.312 119.414 51.076 119.414 50.772C119.414 50.484 119.318 50.26 119.126 50.1C118.942 49.94 118.674 49.86 118.322 49.86H116.198V51.732ZM126.038 49.38L129.254 52.5H128.198L125.198 49.608V52.5H124.406V46.5H125.198V49.152L128.054 46.5H129.134L126.038 49.38ZM134.898 47.676V46.5H135.69V52.5H134.898V51.324C134.346 52.204 133.538 52.644 132.474 52.644C131.618 52.644 130.886 52.34 130.278 51.732C129.678 51.124 129.378 50.38 129.378 49.5C129.378 48.62 129.678 47.876 130.278 47.268C130.886 46.66 131.618 46.356 132.474 46.356C133.538 46.356 134.346 46.796 134.898 47.676ZM130.854 51.192C131.31 51.648 131.87 51.876 132.534 51.876C133.198 51.876 133.758 51.648 134.214 51.192C134.67 50.72 134.898 50.156 134.898 49.5C134.898 48.836 134.67 48.276 134.214 47.82C133.758 47.356 133.198 47.124 132.534 47.124C131.87 47.124 131.31 47.356 130.854 47.82C130.398 48.276 130.17 48.836 130.17 49.5C130.17 50.156 130.398 50.72 130.854 51.192ZM140.583 46.356C141.439 46.356 142.167 46.66 142.767 47.268C143.375 47.876 143.679 48.62 143.679 49.5C143.679 50.38 143.375 51.124 142.767 51.732C142.167 52.34 141.439 52.644 140.583 52.644C139.519 52.644 138.711 52.204 138.159 51.324V54.9H137.367V46.5H138.159V47.676C138.711 46.796 139.519 46.356 140.583 46.356ZM138.843 51.192C139.299 51.648 139.859 51.876 140.523 51.876C141.187 51.876 141.747 51.648 142.203 51.192C142.659 50.72 142.887 50.156 142.887 49.5C142.887 48.836 142.659 48.276 142.203 47.82C141.747 47.356 141.187 47.124 140.523 47.124C139.859 47.124 139.299 47.356 138.843 47.82C138.387 48.276 138.159 48.836 138.159 49.5C138.159 50.156 138.387 50.72 138.843 51.192ZM144.042 46.5H149.082V47.268H146.958V52.5H146.166V47.268H144.042V46.5ZM152.585 46.356C153.481 46.356 154.197 46.672 154.733 47.304C155.285 47.928 155.561 48.668 155.561 49.524C155.561 49.564 155.553 49.688 155.537 49.896H150.269C150.349 50.496 150.605 50.976 151.037 51.336C151.469 51.696 152.009 51.876 152.657 51.876C153.569 51.876 154.213 51.536 154.589 50.856L155.285 51.264C155.021 51.696 154.657 52.036 154.193 52.284C153.737 52.524 153.221 52.644 152.645 52.644C151.701 52.644 150.933 52.348 150.341 51.756C149.749 51.164 149.453 50.412 149.453 49.5C149.453 48.596 149.745 47.848 150.329 47.256C150.913 46.656 151.665 46.356 152.585 46.356ZM152.585 47.124C151.961 47.124 151.437 47.308 151.013 47.676C150.597 48.044 150.349 48.528 150.269 49.128H154.745C154.657 48.488 154.413 47.996 154.013 47.652C153.597 47.3 153.121 47.124 152.585 47.124Z" fill="#0062D5"/>
<path d="M67 54.9H155.981V55.5H67V54.9Z" fill="#0062D5"/>
<path fill-rule="evenodd" clip-rule="evenodd" d="M21.5 92.4646C18.5341 92.4646 16.0321 94.6193 16.2359 97.3027C16.2652 97.6876 16.3088 98.0226 16.3684 98.2885C16.6687 99.6297 17.6114 100.962 18.6733 102.093C19.7261 103.215 20.847 104.087 21.4263 104.51C21.4726 104.544 21.5274 104.544 21.5737 104.51C22.153 104.087 23.2739 103.215 24.3267 102.093C25.3886 100.962 26.3313 99.6297 26.6316 98.2885C26.6912 98.0226 26.7348 97.6876 26.7641 97.3027C26.9679 94.6193 24.4659 92.4646 21.5 92.4646ZM15.14 97.3784C14.88 93.9547 18.0452 91.4167 21.5 91.4167C24.9548 91.4167 28.12 93.9547 27.86 97.3784C27.8289 97.7885 27.7804 98.1761 27.7062 98.5073C27.3462 100.115 26.2521 101.613 25.1454 102.792C24.0296 103.981 22.8502 104.898 22.2419 105.342C21.8014 105.664 21.1986 105.664 20.7581 105.342C20.1498 104.898 18.9704 103.981 17.8546 102.792C16.7479 101.613 15.6538 100.115 15.2938 98.5073C15.2196 98.1761 15.1711 97.7885 15.14 97.3784Z" fill="#0063A9"/>
<path fill-rule="evenodd" clip-rule="evenodd" d="M21.5 96.6561C20.9943 96.6561 20.5843 97.0471 20.5843 97.5294C20.5843 98.0116 20.9943 98.4026 21.5 98.4026C22.0057 98.4026 22.4157 98.0116 22.4157 97.5294C22.4157 97.0471 22.0057 96.6561 21.5 96.6561ZM19.4855 97.5294C19.4855 96.4683 20.3874 95.6082 21.5 95.6082C22.6126 95.6082 23.5145 96.4683 23.5145 97.5294C23.5145 98.5904 22.6126 99.4505 21.5 99.4505C20.3874 99.4505 19.4855 98.5904 19.4855 97.5294Z" fill="#0063A9"/>
<path d="M38.136 97.96L42.98 103H41.692L37.1 98.254V103H36.12V93.2H37.1V97.68L41.552 93.2H42.84L38.136 97.96ZM45.0251 98.66H46.9431C47.5871 98.66 48.1378 98.8653 48.5951 99.276C49.0524 99.6773 49.2811 100.195 49.2811 100.83C49.2811 101.474 49.0524 101.997 48.5951 102.398C48.1564 102.799 47.6058 103 46.9431 103H44.1011V96H45.0251V98.66ZM50.2611 103V96H51.1851V103H50.2611ZM45.0251 102.104H46.9431C47.3444 102.104 47.6804 101.987 47.9511 101.754C48.2218 101.511 48.3571 101.203 48.3571 100.83C48.3571 100.457 48.2218 100.153 47.9511 99.92C47.6804 99.6773 47.3444 99.556 46.9431 99.556H45.0251V102.104ZM56.9039 95.832C57.9025 95.832 58.7519 96.1867 59.4519 96.896C60.1612 97.6053 60.5159 98.4733 60.5159 99.5C60.5159 100.527 60.1612 101.395 59.4519 102.104C58.7519 102.813 57.9025 103.168 56.9039 103.168C55.6625 103.168 54.7199 102.655 54.0759 101.628V105.8H53.1519V96H54.0759V97.372C54.7199 96.3453 55.6625 95.832 56.9039 95.832ZM54.8739 101.474C55.4059 102.006 56.0592 102.272 56.8339 102.272C57.6085 102.272 58.2619 102.006 58.7939 101.474C59.3259 100.923 59.5919 100.265 59.5919 99.5C59.5919 98.7253 59.3259 98.072 58.7939 97.54C58.2619 96.9987 57.6085 96.728 56.8339 96.728C56.0592 96.728 55.4059 96.9987 54.8739 97.54C54.3419 98.072 54.0759 98.7253 54.0759 99.5C54.0759 100.265 54.3419 100.923 54.8739 101.474ZM62.0523 96H66.5323V96.896H62.9763V103H62.0523V96ZM68.5817 98.66H70.4997C71.1437 98.66 71.6944 98.8653 72.1517 99.276C72.6091 99.6773 72.8377 100.195 72.8377 100.83C72.8377 101.474 72.6091 101.997 72.1517 102.398C71.7131 102.799 71.1624 103 70.4997 103H67.6577V96H68.5817V98.66ZM73.8177 103V96H74.7417V103H73.8177ZM68.5817 102.104H70.4997C70.9011 102.104 71.2371 101.987 71.5077 101.754C71.7784 101.511 71.9137 101.203 71.9137 100.83C71.9137 100.457 71.7784 100.153 71.5077 99.92C71.2371 99.6773 70.9011 99.556 70.4997 99.556H68.5817V102.104ZM80.3205 99.402C81.1325 99.71 81.5385 100.27 81.5385 101.082C81.5385 101.67 81.3098 102.165 80.8525 102.566C80.4138 102.967 79.7698 103.168 78.9205 103.168C77.5018 103.168 76.5778 102.608 76.1485 101.488L76.9325 101.026C77.2312 101.857 77.8938 102.272 78.9205 102.272C79.4525 102.272 79.8678 102.16 80.1665 101.936C80.4652 101.703 80.6145 101.399 80.6145 101.026C80.6145 100.69 80.4932 100.424 80.2505 100.228C80.0078 100.023 79.6812 99.92 79.2705 99.92H78.2485V99.024H78.9905C79.3918 99.024 79.7045 98.926 79.9285 98.73C80.1618 98.5247 80.2785 98.2447 80.2785 97.89C80.2785 97.554 80.1385 97.2787 79.8585 97.064C79.5878 96.84 79.2285 96.728 78.7805 96.728C77.9125 96.728 77.3292 97.078 77.0305 97.778L76.2605 97.33C76.7272 96.3313 77.5672 95.832 78.7805 95.832C79.5272 95.832 80.1152 96.028 80.5445 96.42C80.9832 96.8027 81.2025 97.274 81.2025 97.834C81.2025 98.5527 80.9085 99.0753 80.3205 99.402ZM86.2049 103.168C85.1502 103.168 84.2729 102.818 83.5729 102.118C82.8729 101.399 82.5229 100.527 82.5229 99.5C82.5229 98.464 82.8729 97.596 83.5729 96.896C84.2729 96.1867 85.1502 95.832 86.2049 95.832C86.8956 95.832 87.5162 96 88.0669 96.336C88.6176 96.6627 89.0189 97.106 89.2709 97.666L88.5149 98.1C88.3282 97.68 88.0249 97.3487 87.6049 97.106C87.1942 96.854 86.7276 96.728 86.2049 96.728C85.4302 96.728 84.7769 96.9987 84.2449 97.54C83.7129 98.072 83.4469 98.7253 83.4469 99.5C83.4469 100.265 83.7129 100.923 84.2449 101.474C84.7769 102.006 85.4302 102.272 86.2049 102.272C86.7182 102.272 87.1802 102.151 87.5909 101.908C88.0109 101.665 88.3376 101.329 88.5709 100.9L89.3409 101.348C89.0516 101.908 88.6269 102.351 88.0669 102.678C87.5069 103.005 86.8862 103.168 86.2049 103.168ZM89.6908 96H95.5708V96.896H93.0928V103H92.1688V96.896H89.6908V96ZM102.443 97.372V96H103.367V103H102.443V101.628C101.799 102.655 100.857 103.168 99.6154 103.168C98.6167 103.168 97.7627 102.813 97.0534 102.104C96.3534 101.395 96.0034 100.527 96.0034 99.5C96.0034 98.4733 96.3534 97.6053 97.0534 96.896C97.7627 96.1867 98.6167 95.832 99.6154 95.832C100.857 95.832 101.799 96.3453 102.443 97.372ZM97.7254 101.474C98.2574 102.006 98.9107 102.272 99.6854 102.272C100.46 102.272 101.113 102.006 101.645 101.474C102.177 100.923 102.443 100.265 102.443 99.5C102.443 98.7253 102.177 98.072 101.645 97.54C101.113 96.9987 100.46 96.728 99.6854 96.728C98.9107 96.728 98.2574 96.9987 97.7254 97.54C97.1934 98.072 96.9274 98.7253 96.9274 99.5C96.9274 100.265 97.1934 100.923 97.7254 101.474ZM110.28 99.052V96H111.204V103H110.28V99.948H106.248V103H105.324V96H106.248V99.052H110.28ZM113.578 101.81H114.698L113.858 104.96H113.018L113.578 101.81ZM120.021 96H124.501V96.896H120.945V103H120.021V96ZM125.769 102.37C125.769 102.585 125.694 102.767 125.545 102.916C125.395 103.065 125.213 103.14 124.999 103.14C124.784 103.14 124.602 103.065 124.453 102.916C124.303 102.767 124.229 102.585 124.229 102.37C124.229 102.155 124.303 101.973 124.453 101.824C124.602 101.675 124.784 101.6 124.999 101.6C125.213 101.6 125.395 101.675 125.545 101.824C125.694 101.973 125.769 102.155 125.769 102.37ZM132.215 97.12H134.875C135.678 97.12 136.369 97.4093 136.947 97.988C137.526 98.5667 137.815 99.2573 137.815 100.06C137.815 100.872 137.526 101.567 136.947 102.146C136.378 102.715 135.687 103 134.875 103H131.235V93.2H136.975V94.124H132.215V97.12ZM132.215 102.076H134.875C135.417 102.076 135.879 101.88 136.261 101.488C136.644 101.087 136.835 100.611 136.835 100.06C136.835 99.5187 136.644 99.0473 136.261 98.646C135.888 98.2447 135.426 98.044 134.875 98.044H132.215V102.076ZM140.209 101.39L144.381 96H145.165V103H144.241V97.61L140.069 103H139.285V96H140.209V101.39ZM155.575 102.104V96H156.499V103H147.119V96H148.043V102.104H151.347V96H152.271V102.104H155.575ZM160.357 99.36L164.109 103H162.877L159.377 99.626V103H158.453V96H159.377V99.094L162.709 96H163.969L160.357 99.36ZM167.907 95.832C168.953 95.832 169.788 96.2007 170.413 96.938C171.057 97.666 171.379 98.5293 171.379 99.528C171.379 99.5747 171.37 99.7193 171.351 99.962H165.205C165.299 100.662 165.597 101.222 166.101 101.642C166.605 102.062 167.235 102.272 167.991 102.272C169.055 102.272 169.807 101.875 170.245 101.082L171.057 101.558C170.749 102.062 170.325 102.459 169.783 102.748C169.251 103.028 168.649 103.168 167.977 103.168C166.876 103.168 165.98 102.823 165.289 102.132C164.599 101.441 164.253 100.564 164.253 99.5C164.253 98.4453 164.594 97.5727 165.275 96.882C165.957 96.182 166.834 95.832 167.907 95.832ZM167.907 96.728C167.179 96.728 166.568 96.9427 166.073 97.372C165.588 97.8013 165.299 98.366 165.205 99.066H170.427C170.325 98.3193 170.04 97.7453 169.573 97.344C169.088 96.9333 168.533 96.728 167.907 96.728ZM174.753 99.36L178.505 103H177.273L173.773 99.626V103H172.849V96H173.773V99.094L177.105 96H178.365L174.753 99.36ZM38.752 118.866L41.02 113H42L39.004 120.644C38.724 121.353 38.332 121.899 37.828 122.282C37.3333 122.674 36.7827 122.847 36.176 122.8V121.932C37.016 122.035 37.6553 121.549 38.094 120.476L38.276 120.042L35.14 113H36.12L38.752 118.866ZM43.4209 113H48.4329V120H47.5089V113.896H44.3449V117.018C44.3449 118.185 44.1209 118.987 43.6729 119.426C43.2342 119.865 42.6276 120.056 41.8529 120V119.132C42.3942 119.188 42.7909 119.057 43.0429 118.74C43.2949 118.423 43.4209 117.849 43.4209 117.018V113ZM51.7902 119.37C51.7902 119.585 51.7155 119.767 51.5662 119.916C51.4168 120.065 51.2348 120.14 51.0202 120.14C50.8055 120.14 50.6235 120.065 50.4742 119.916C50.3248 119.767 50.2502 119.585 50.2502 119.37C50.2502 119.155 50.3248 118.973 50.4742 118.824C50.6235 118.675 50.8055 118.6 51.0202 118.6C51.2348 118.6 51.4168 118.675 51.5662 118.824C51.7155 118.973 51.7902 119.155 51.7902 119.37ZM56.4167 110.2H63.4167V111.124H60.4067V120H59.4267V111.124H56.4167V110.2ZM66.3282 118.866L68.5962 113H69.5762L66.5802 120.644C66.3002 121.353 65.9082 121.899 65.4042 122.282C64.9095 122.674 64.3588 122.847 63.7522 122.8V121.932C64.5922 122.035 65.2315 121.549 65.6702 120.476L65.8522 120.042L62.7162 113H63.6962L66.3282 118.866ZM74.4449 112.832C75.4436 112.832 76.2929 113.187 76.9929 113.896C77.7022 114.605 78.0569 115.473 78.0569 116.5C78.0569 117.527 77.7022 118.395 76.9929 119.104C76.2929 119.813 75.4436 120.168 74.4449 120.168C73.2036 120.168 72.2609 119.655 71.6169 118.628V122.8H70.6929V113H71.6169V114.372C72.2609 113.345 73.2036 112.832 74.4449 112.832ZM72.4149 118.474C72.9469 119.006 73.6002 119.272 74.3749 119.272C75.1496 119.272 75.8029 119.006 76.3349 118.474C76.8669 117.923 77.1329 117.265 77.1329 116.5C77.1329 115.725 76.8669 115.072 76.3349 114.54C75.8029 113.999 75.1496 113.728 74.3749 113.728C73.6002 113.728 72.9469 113.999 72.4149 114.54C71.8829 115.072 71.6169 115.725 71.6169 116.5C71.6169 117.265 71.8829 117.923 72.4149 118.474ZM82.0918 118.866L84.3598 113H85.3398L82.3438 120.644C82.0638 121.353 81.6718 121.899 81.1678 122.282C80.6732 122.674 80.1225 122.847 79.5158 122.8V121.932C80.3558 122.035 80.9952 121.549 81.4338 120.476L81.6158 120.042L78.4798 113H79.4598L82.0918 118.866ZM89.4451 120.168C88.3905 120.168 87.5131 119.818 86.8131 119.118C86.1131 118.399 85.7631 117.527 85.7631 116.5C85.7631 115.464 86.1131 114.596 86.8131 113.896C87.5131 113.187 88.3905 112.832 89.4451 112.832C90.1358 112.832 90.7565 113 91.3071 113.336C91.8578 113.663 92.2591 114.106 92.5111 114.666L91.7551 115.1C91.5685 114.68 91.2651 114.349 90.8451 114.106C90.4345 113.854 89.9678 113.728 89.4451 113.728C88.6705 113.728 88.0171 113.999 87.4851 114.54C86.9531 115.072 86.6871 115.725 86.6871 116.5C86.6871 117.265 86.9531 117.923 87.4851 118.474C88.0171 119.006 88.6705 119.272 89.4451 119.272C89.9585 119.272 90.4205 119.151 90.8311 118.908C91.2511 118.665 91.5778 118.329 91.8111 117.9L92.5811 118.348C92.2918 118.908 91.8671 119.351 91.3071 119.678C90.7471 120.005 90.1265 120.168 89.4451 120.168ZM96.9474 120.168C95.9487 120.168 95.1087 119.837 94.4274 119.174C93.7554 118.502 93.4194 117.634 93.4194 116.57C93.4194 115.375 93.5967 114.461 93.9514 113.826C94.306 113.182 95.0247 112.599 96.1074 112.076C96.4527 111.917 96.7234 111.796 96.9194 111.712C97.246 111.581 97.5027 111.469 97.6894 111.376C98.5014 111.003 98.912 110.541 98.9214 109.99L99.6494 110.41C99.6027 110.643 99.528 110.853 99.4254 111.04C99.304 111.245 99.1827 111.409 99.0614 111.53C98.9494 111.651 98.772 111.782 98.5294 111.922C98.3707 112.015 98.1794 112.118 97.9554 112.23L97.2554 112.524L96.5974 112.804C95.9534 113.084 95.4727 113.378 95.1554 113.686C94.8474 113.985 94.628 114.377 94.4974 114.862C94.796 114.461 95.188 114.157 95.6734 113.952C96.1587 113.737 96.6487 113.63 97.1434 113.63C98.0767 113.63 98.8467 113.938 99.4534 114.554C100.069 115.161 100.377 115.94 100.377 116.892C100.377 117.835 100.051 118.619 99.3974 119.244C98.7534 119.86 97.9367 120.168 96.9474 120.168ZM95.1274 118.558C95.6127 119.015 96.2194 119.244 96.9474 119.244C97.6754 119.244 98.2727 119.025 98.7394 118.586C99.2154 118.138 99.4534 117.573 99.4534 116.892C99.4534 116.201 99.2294 115.637 98.7814 115.198C98.3427 114.75 97.7547 114.526 97.0174 114.526C96.3547 114.526 95.7527 114.736 95.2114 115.156C94.67 115.557 94.3994 116.108 94.3994 116.808C94.3994 117.517 94.642 118.101 95.1274 118.558ZM105.017 112.832C106.062 112.832 106.897 113.201 107.523 113.938C108.167 114.666 108.489 115.529 108.489 116.528C108.489 116.575 108.479 116.719 108.461 116.962H102.315C102.408 117.662 102.707 118.222 103.211 118.642C103.715 119.062 104.345 119.272 105.101 119.272C106.165 119.272 106.916 118.875 107.355 118.082L108.167 118.558C107.859 119.062 107.434 119.459 106.893 119.748C106.361 120.028 105.759 120.168 105.087 120.168C103.985 120.168 103.089 119.823 102.399 119.132C101.708 118.441 101.363 117.564 101.363 116.5C101.363 115.445 101.703 114.573 102.385 113.882C103.066 113.182 103.943 112.832 105.017 112.832ZM105.017 113.728C104.289 113.728 103.677 113.943 103.183 114.372C102.697 114.801 102.408 115.366 102.315 116.066H107.537C107.434 115.319 107.149 114.745 106.683 114.344C106.197 113.933 105.642 113.728 105.017 113.728ZM111.863 116.36L115.615 120H114.383L110.883 116.626V120H109.959V113H110.883V116.094L114.215 113H115.475L111.863 116.36ZM122.045 119.118C121.327 119.818 120.459 120.168 119.441 120.168C118.405 120.168 117.533 119.818 116.823 119.118C116.114 118.409 115.759 117.536 115.759 116.5C115.759 115.464 116.114 114.596 116.823 113.896C117.533 113.187 118.405 112.832 119.441 112.832C120.468 112.832 121.336 113.187 122.045 113.896C122.764 114.596 123.123 115.464 123.123 116.5C123.123 117.527 122.764 118.399 122.045 119.118ZM117.481 118.474C118.013 119.006 118.667 119.272 119.441 119.272C120.216 119.272 120.869 119.006 121.401 118.474C121.933 117.923 122.199 117.265 122.199 116.5C122.199 115.725 121.933 115.072 121.401 114.54C120.869 113.999 120.216 113.728 119.441 113.728C118.667 113.728 118.013 113.999 117.481 114.54C116.949 115.072 116.683 115.725 116.683 116.5C116.683 117.265 116.949 117.923 117.481 118.474ZM129.121 116.402C129.887 116.682 130.269 117.228 130.269 118.04C130.269 118.619 130.073 119.09 129.681 119.454C129.299 119.818 128.762 120 128.071 120H124.669V113H127.791C128.463 113 128.986 113.173 129.359 113.518C129.742 113.863 129.933 114.316 129.933 114.876C129.933 115.576 129.663 116.085 129.121 116.402ZM127.791 113.896H125.593V116.024H127.791C128.603 116.024 129.009 115.66 129.009 114.932C129.009 114.605 128.902 114.353 128.687 114.176C128.482 113.989 128.183 113.896 127.791 113.896ZM125.593 119.104H128.071C128.482 119.104 128.795 119.006 129.009 118.81C129.233 118.614 129.345 118.339 129.345 117.984C129.345 117.648 129.233 117.387 129.009 117.2C128.795 117.013 128.482 116.92 128.071 116.92H125.593V119.104ZM137.689 114.372V113H138.613V120H137.689V118.628C137.045 119.655 136.103 120.168 134.861 120.168C133.863 120.168 133.009 119.813 132.299 119.104C131.599 118.395 131.249 117.527 131.249 116.5C131.249 115.473 131.599 114.605 132.299 113.896C133.009 113.187 133.863 112.832 134.861 112.832C136.103 112.832 137.045 113.345 137.689 114.372ZM132.971 118.474C133.503 119.006 134.157 119.272 134.931 119.272C135.706 119.272 136.359 119.006 136.891 118.474C137.423 117.923 137.689 117.265 137.689 116.5C137.689 115.725 137.423 115.072 136.891 114.54C136.359 113.999 135.706 113.728 134.931 113.728C134.157 113.728 133.503 113.999 132.971 114.54C132.439 115.072 132.173 115.725 132.173 116.5C132.173 117.265 132.439 117.923 132.971 118.474ZM151.77 120H150.734L149.824 117.592H145.176L144.266 120H143.23L146.996 110.2H148.004L151.77 120ZM147.5 111.418L145.526 116.668H149.474L147.5 111.418ZM151.284 111.096L153.874 110.2H154.714V120H153.734V111.278L151.536 111.936L151.284 111.096ZM159.542 113.7C160.494 113.7 161.283 114.003 161.908 114.61C162.524 115.217 162.832 115.991 162.832 116.934C162.832 117.895 162.524 118.675 161.908 119.272C161.301 119.869 160.513 120.168 159.542 120.168C158.571 120.168 157.783 119.869 157.176 119.272C156.56 118.675 156.252 117.895 156.252 116.934C156.252 116.197 156.453 115.543 156.854 114.974L160.06 110.2H161.166L158.758 113.784C159.01 113.728 159.271 113.7 159.542 113.7ZM157.862 118.586C158.301 119.006 158.861 119.216 159.542 119.216C160.233 119.216 160.788 119.006 161.208 118.586C161.637 118.166 161.852 117.615 161.852 116.934C161.852 116.253 161.637 115.702 161.208 115.282C160.788 114.862 160.233 114.652 159.542 114.652C158.861 114.652 158.301 114.862 157.862 115.282C157.442 115.702 157.232 116.253 157.232 116.934C157.232 117.615 157.442 118.166 157.862 118.586ZM162.688 111.124V110.2H168.708V111.124L165.012 120H163.99L167.686 111.124H162.688Z" fill="black"/>
<path d="M379.667 46.6666V45.3333H387.667L384 41.6666L384.947 40.72L390.227 46L384.947 51.28L384 50.3333L387.667 46.6666H379.667Z" fill="#727272"/>
<path fill-rule="evenodd" clip-rule="evenodd" d="M23.6181 150.958C23.9441 150.958 24.2084 151.209 24.2084 151.518L24.2084 155.246C24.2084 155.394 24.1462 155.536 24.0355 155.641L21.6743 157.878C21.4438 158.096 21.0701 158.096 20.8396 157.878C20.6091 157.66 20.6091 157.305 20.8396 157.087L23.0278 155.014V151.518C23.0278 151.209 23.2921 150.958 23.6181 150.958Z" fill="#0063A9"/>
<path fill-rule="evenodd" clip-rule="evenodd" d="M23.5 148.506C21.9635 148.506 19.8635 148.647 18.5523 148.749C18.121 148.782 17.7824 149.121 17.749 149.552C17.6474 150.864 17.5064 152.964 17.5064 154.5C17.5064 156.037 17.6474 158.136 17.749 159.448C17.7824 159.879 18.121 160.218 18.5523 160.251C19.8635 160.353 21.9635 160.494 23.5 160.494C25.0365 160.494 27.1365 160.353 28.4478 160.251C28.879 160.218 29.2176 159.879 29.251 159.448C29.3526 158.136 29.4936 156.037 29.4936 154.5C29.4936 152.964 29.3526 150.864 29.251 149.552C29.2176 149.121 28.879 148.782 28.4478 148.749C27.1365 148.647 25.0365 148.506 23.5 148.506ZM18.4681 147.663C19.78 147.561 21.9172 147.417 23.5 147.417C25.0828 147.417 27.2201 147.561 28.5319 147.663C29.4986 147.737 30.2626 148.501 30.3375 149.468C30.4391 150.78 30.5834 152.917 30.5834 154.5C30.5834 156.083 30.4391 158.22 30.3375 159.532C30.2626 160.499 29.4986 161.263 28.5319 161.338C27.2201 161.439 25.0828 161.583 23.5 161.583C21.9172 161.583 19.78 161.439 18.4681 161.338C17.5014 161.263 16.7374 160.499 16.6625 159.532C16.5609 158.22 16.4167 156.083 16.4167 154.5C16.4167 152.917 16.5609 150.78 16.6625 149.468C16.7374 148.501 17.5014 147.737 18.4681 147.663Z" fill="#0063A9"/>
<path d="M44.14 157.796C43.496 158.711 42.586 159.168 41.41 159.168C40.2433 159.168 39.3287 158.711 38.666 157.796C38.022 156.872 37.7 155.64 37.7 154.1C37.7 152.551 38.022 151.323 38.666 150.418C39.3287 149.494 40.2433 149.032 41.41 149.032C42.586 149.032 43.496 149.494 44.14 150.418C44.7933 151.323 45.12 152.551 45.12 154.1C45.12 155.649 44.7933 156.881 44.14 157.796ZM39.394 157.138C39.8887 157.857 40.5607 158.216 41.41 158.216C42.2687 158.216 42.936 157.857 43.412 157.138C43.8973 156.429 44.14 155.416 44.14 154.1C44.14 152.784 43.8973 151.771 43.412 151.062C42.936 150.343 42.2687 149.984 41.41 149.984C40.5607 149.984 39.8887 150.343 39.394 151.062C38.918 151.781 38.68 152.793 38.68 154.1C38.68 155.407 38.918 156.419 39.394 157.138ZM51.3064 153.946C51.8104 154.179 52.207 154.506 52.4964 154.926C52.7857 155.346 52.9304 155.817 52.9304 156.34C52.9304 157.227 52.6177 157.922 51.9924 158.426C51.3577 158.921 50.5784 159.168 49.6544 159.168C48.7304 159.168 47.951 158.921 47.3164 158.426C46.691 157.922 46.3784 157.227 46.3784 156.34C46.3784 155.817 46.523 155.346 46.8124 154.926C47.1017 154.506 47.4984 154.179 48.0024 153.946C47.1344 153.451 46.7004 152.719 46.7004 151.748C46.7004 150.871 46.9897 150.199 47.5684 149.732C48.1657 149.265 48.861 149.032 49.6544 149.032C50.457 149.032 51.1477 149.265 51.7264 149.732C52.3144 150.199 52.6084 150.871 52.6084 151.748C52.6084 152.719 52.1744 153.451 51.3064 153.946ZM47.6804 151.748C47.6804 152.289 47.867 152.719 48.2404 153.036C48.623 153.353 49.0944 153.512 49.6544 153.512C50.2144 153.512 50.681 153.353 51.0544 153.036C51.437 152.719 51.6284 152.289 51.6284 151.748C51.6284 151.179 51.4464 150.745 51.0824 150.446C50.7184 150.138 50.2424 149.984 49.6544 149.984C49.0664 149.984 48.5904 150.138 48.2264 150.446C47.8624 150.745 47.6804 151.179 47.6804 151.748ZM47.9884 157.74C48.399 158.057 48.9544 158.216 49.6544 158.216C50.3544 158.216 50.9097 158.057 51.3204 157.74C51.7404 157.413 51.9504 156.947 51.9504 156.34C51.9504 155.743 51.7404 155.281 51.3204 154.954C50.891 154.627 50.3357 154.464 49.6544 154.464C48.973 154.464 48.4177 154.627 47.9884 154.954C47.5684 155.281 47.3584 155.743 47.3584 156.34C47.3584 156.956 47.5684 157.423 47.9884 157.74ZM55.8683 152.63C55.8683 152.845 55.7936 153.027 55.6443 153.176C55.4949 153.325 55.3129 153.4 55.0983 153.4C54.8836 153.4 54.7016 153.325 54.5523 153.176C54.4029 153.027 54.3283 152.845 54.3283 152.63C54.3283 152.415 54.4029 152.233 54.5523 152.084C54.7016 151.935 54.8836 151.86 55.0983 151.86C55.3129 151.86 55.4949 151.935 55.6443 152.084C55.7936 152.233 55.8683 152.415 55.8683 152.63ZM55.8683 158.37C55.8683 158.585 55.7936 158.767 55.6443 158.916C55.4949 159.065 55.3129 159.14 55.0983 159.14C54.8836 159.14 54.7016 159.065 54.5523 158.916C54.4029 158.767 54.3283 158.585 54.3283 158.37C54.3283 158.155 54.4029 157.973 54.5523 157.824C54.7016 157.675 54.8836 157.6 55.0983 157.6C55.3129 157.6 55.4949 157.675 55.6443 157.824C55.7936 157.973 55.8683 158.155 55.8683 158.37ZM63.8548 157.796C63.2108 158.711 62.3008 159.168 61.1248 159.168C59.9582 159.168 59.0435 158.711 58.3808 157.796C57.7368 156.872 57.4148 155.64 57.4148 154.1C57.4148 152.551 57.7368 151.323 58.3808 150.418C59.0435 149.494 59.9582 149.032 61.1248 149.032C62.3008 149.032 63.2108 149.494 63.8548 150.418C64.5082 151.323 64.8348 152.551 64.8348 154.1C64.8348 155.649 64.5082 156.881 63.8548 157.796ZM59.1088 157.138C59.6035 157.857 60.2755 158.216 61.1248 158.216C61.9835 158.216 62.6508 157.857 63.1268 157.138C63.6122 156.429 63.8548 155.416 63.8548 154.1C63.8548 152.784 63.6122 151.771 63.1268 151.062C62.6508 150.343 61.9835 149.984 61.1248 149.984C60.2755 149.984 59.6035 150.343 59.1088 151.062C58.6328 151.781 58.3948 152.793 58.3948 154.1C58.3948 155.407 58.6328 156.419 59.1088 157.138ZM72.6732 157.796C72.0292 158.711 71.1192 159.168 69.9432 159.168C68.7765 159.168 67.8619 158.711 67.1992 157.796C66.5552 156.872 66.2332 155.64 66.2332 154.1C66.2332 152.551 66.5552 151.323 67.1992 150.418C67.8619 149.494 68.7765 149.032 69.9432 149.032C71.1192 149.032 72.0292 149.494 72.6732 150.418C73.3265 151.323 73.6532 152.551 73.6532 154.1C73.6532 155.649 73.3265 156.881 72.6732 157.796ZM67.9272 157.138C68.4219 157.857 69.0939 158.216 69.9432 158.216C70.8019 158.216 71.4692 157.857 71.9452 157.138C72.4305 156.429 72.6732 155.416 72.6732 154.1C72.6732 152.784 72.4305 151.771 71.9452 151.062C71.4692 150.343 70.8019 149.984 69.9432 149.984C69.0939 149.984 68.4219 150.343 67.9272 151.062C67.4512 151.781 67.2132 152.793 67.2132 154.1C67.2132 155.407 67.4512 156.419 67.9272 157.138ZM84.0116 155.122H78.9716V154.226H84.0116V155.122ZM95.415 159H89.185V158.118L92.713 154.562C93.721 153.554 94.225 152.691 94.225 151.972C94.225 151.365 94.0337 150.885 93.651 150.53C93.2777 150.166 92.811 149.984 92.251 149.984C91.2523 149.984 90.5197 150.446 90.053 151.37L89.227 150.88C89.5257 150.283 89.941 149.825 90.473 149.508C91.005 149.191 91.5977 149.032 92.251 149.032C93.035 149.032 93.721 149.298 94.309 149.83C94.9063 150.343 95.205 151.057 95.205 151.972C95.205 152.513 95.0557 153.045 94.757 153.568C94.4583 154.081 94.001 154.646 93.385 155.262L90.585 158.048H95.415V159ZM102.77 159H96.5405V158.118L100.068 154.562C101.076 153.554 101.58 152.691 101.58 151.972C101.58 151.365 101.389 150.885 101.006 150.53C100.633 150.166 100.166 149.984 99.6065 149.984C98.6078 149.984 97.8751 150.446 97.4085 151.37L96.5825 150.88C96.8811 150.283 97.2965 149.825 97.8285 149.508C98.3605 149.191 98.9531 149.032 99.6065 149.032C100.39 149.032 101.076 149.298 101.664 149.83C102.262 150.343 102.56 151.057 102.56 151.972C102.56 152.513 102.411 153.045 102.112 153.568C101.814 154.081 101.356 154.646 100.74 155.262L97.9405 158.048H102.77V159ZM105.716 152.63C105.716 152.845 105.641 153.027 105.492 153.176C105.343 153.325 105.161 153.4 104.946 153.4C104.731 153.4 104.549 153.325 104.4 153.176C104.251 153.027 104.176 152.845 104.176 152.63C104.176 152.415 104.251 152.233 104.4 152.084C104.549 151.935 104.731 151.86 104.946 151.86C105.161 151.86 105.343 151.935 105.492 152.084C105.641 152.233 105.716 152.415 105.716 152.63ZM105.716 158.37C105.716 158.585 105.641 158.767 105.492 158.916C105.343 159.065 105.161 159.14 104.946 159.14C104.731 159.14 104.549 159.065 104.4 158.916C104.251 158.767 104.176 158.585 104.176 158.37C104.176 158.155 104.251 157.973 104.4 157.824C104.549 157.675 104.731 157.6 104.946 157.6C105.161 157.6 105.343 157.675 105.492 157.824C105.641 157.973 105.716 158.155 105.716 158.37ZM113.703 157.796C113.059 158.711 112.149 159.168 110.973 159.168C109.806 159.168 108.891 158.711 108.229 157.796C107.585 156.872 107.263 155.64 107.263 154.1C107.263 152.551 107.585 151.323 108.229 150.418C108.891 149.494 109.806 149.032 110.973 149.032C112.149 149.032 113.059 149.494 113.703 150.418C114.356 151.323 114.683 152.551 114.683 154.1C114.683 155.649 114.356 156.881 113.703 157.796ZM108.957 157.138C109.451 157.857 110.123 158.216 110.973 158.216C111.831 158.216 112.499 157.857 112.975 157.138C113.46 156.429 113.703 155.416 113.703 154.1C113.703 152.784 113.46 151.771 112.975 151.062C112.499 150.343 111.831 149.984 110.973 149.984C110.123 149.984 109.451 150.343 108.957 151.062C108.481 151.781 108.243 152.793 108.243 154.1C108.243 155.407 108.481 156.419 108.957 157.138ZM122.521 157.796C121.877 158.711 120.967 159.168 119.791 159.168C118.624 159.168 117.71 158.711 117.047 157.796C116.403 156.872 116.081 155.64 116.081 154.1C116.081 152.551 116.403 151.323 117.047 150.418C117.71 149.494 118.624 149.032 119.791 149.032C120.967 149.032 121.877 149.494 122.521 150.418C123.174 151.323 123.501 152.551 123.501 154.1C123.501 155.649 123.174 156.881 122.521 157.796ZM117.775 157.138C118.27 157.857 118.942 158.216 119.791 158.216C120.65 158.216 121.317 157.857 121.793 157.138C122.278 156.429 122.521 155.416 122.521 154.1C122.521 152.784 122.278 151.771 121.793 151.062C121.317 150.343 120.65 149.984 119.791 149.984C118.942 149.984 118.27 150.343 117.775 151.062C117.299 151.781 117.061 152.793 117.061 154.1C117.061 155.407 117.299 156.419 117.775 157.138Z" fill="black"/>
<line x1="15" y1="69.5" x2="393" y2="69.5" stroke="#E3E3E3"/>
<path d="M260.262 148.03L261.77 146.716C262.603 145.991 263.867 146.078 264.592 146.911L265.793 148.289C266.291 148.861 266.423 149.666 266.132 150.368L265.993 150.706C265.702 151.407 265.834 152.212 266.332 152.784L268.449 155.214C268.947 155.786 269.727 156.027 270.461 155.836L270.815 155.744C271.55 155.552 272.329 155.793 272.827 156.366L274.444 158.222C275.169 159.055 275.082 160.318 274.249 161.043L272.741 162.357C271.492 163.445 269.597 163.314 268.509 162.065L259.97 152.262C258.882 151.013 259.013 149.118 260.262 148.03Z" stroke="#0063A9" stroke-linecap="round"/>
<path d="M285.228 153.652H287.72V154.548H285.228V157.04H284.332V154.548H281.84V153.652H284.332V151.16H285.228V153.652ZM295.561 152.266C295.561 153.003 295.36 153.657 294.959 154.226L291.753 159H290.647L293.055 155.416C292.803 155.472 292.541 155.5 292.271 155.5C291.3 155.5 290.511 155.201 289.905 154.604C289.289 154.007 288.981 153.227 288.981 152.266C288.981 151.323 289.289 150.549 289.905 149.942C290.53 149.335 291.319 149.032 292.271 149.032C293.223 149.032 294.011 149.335 294.637 149.942C295.253 150.549 295.561 151.323 295.561 152.266ZM290.591 150.614C290.171 151.034 289.961 151.585 289.961 152.266C289.961 152.947 290.171 153.498 290.591 153.918C291.029 154.338 291.589 154.548 292.271 154.548C292.961 154.548 293.517 154.338 293.937 153.918C294.366 153.498 294.581 152.947 294.581 152.266C294.581 151.585 294.366 151.034 293.937 150.614C293.517 150.194 292.961 149.984 292.271 149.984C291.589 149.984 291.029 150.194 290.591 150.614ZM302.984 152.266C302.984 153.003 302.784 153.657 302.382 154.226L299.176 159H298.07L300.478 155.416C300.226 155.472 299.965 155.5 299.694 155.5C298.724 155.5 297.935 155.201 297.328 154.604C296.712 154.007 296.404 153.227 296.404 152.266C296.404 151.323 296.712 150.549 297.328 149.942C297.954 149.335 298.742 149.032 299.694 149.032C300.646 149.032 301.435 149.335 302.06 149.942C302.676 150.549 302.984 151.323 302.984 152.266ZM298.014 150.614C297.594 151.034 297.384 151.585 297.384 152.266C297.384 152.947 297.594 153.498 298.014 153.918C298.453 154.338 299.013 154.548 299.694 154.548C300.385 154.548 300.94 154.338 301.36 153.918C301.79 153.498 302.004 152.947 302.004 152.266C302.004 151.585 301.79 151.034 301.36 150.614C300.94 150.194 300.385 149.984 299.694 149.984C299.013 149.984 298.453 150.194 298.014 150.614ZM306.571 152.7C307.523 152.7 308.312 153.003 308.937 153.61C309.553 154.217 309.861 154.991 309.861 155.934C309.861 156.895 309.553 157.675 308.937 158.272C308.331 158.869 307.542 159.168 306.571 159.168C305.601 159.168 304.812 158.869 304.205 158.272C303.589 157.675 303.281 156.895 303.281 155.934C303.281 155.197 303.482 154.543 303.883 153.974L307.089 149.2H308.195L305.787 152.784C306.039 152.728 306.301 152.7 306.571 152.7ZM304.891 157.586C305.33 158.006 305.89 158.216 306.571 158.216C307.262 158.216 307.817 158.006 308.237 157.586C308.667 157.166 308.881 156.615 308.881 155.934C308.881 155.253 308.667 154.702 308.237 154.282C307.817 153.862 307.262 153.652 306.571 153.652C305.89 153.652 305.33 153.862 304.891 154.282C304.471 154.702 304.261 155.253 304.261 155.934C304.261 156.615 304.471 157.166 304.891 157.586ZM315.843 153.148H317.495C318.419 153.148 319.194 153.419 319.819 153.96C320.463 154.492 320.785 155.225 320.785 156.158C320.785 157.082 320.463 157.819 319.819 158.37C319.194 158.902 318.419 159.168 317.495 159.168C316.739 159.168 316.072 158.986 315.493 158.622C314.924 158.249 314.541 157.735 314.345 157.082L315.171 156.606C315.311 157.119 315.586 157.516 315.997 157.796C316.408 158.076 316.907 158.216 317.495 158.216C318.186 158.216 318.741 158.034 319.161 157.67C319.59 157.297 319.805 156.793 319.805 156.158C319.805 155.523 319.59 155.024 319.161 154.66C318.741 154.287 318.186 154.1 317.495 154.1H314.835L315.185 149.2H320.435V150.124H316.053L315.843 153.148ZM328.212 157.796C327.568 158.711 326.658 159.168 325.482 159.168C324.316 159.168 323.401 158.711 322.738 157.796C322.094 156.872 321.772 155.64 321.772 154.1C321.772 152.551 322.094 151.323 322.738 150.418C323.401 149.494 324.316 149.032 325.482 149.032C326.658 149.032 327.568 149.494 328.212 150.418C328.866 151.323 329.192 152.551 329.192 154.1C329.192 155.649 328.866 156.881 328.212 157.796ZM323.466 157.138C323.961 157.857 324.633 158.216 325.482 158.216C326.341 158.216 327.008 157.857 327.484 157.138C327.97 156.429 328.212 155.416 328.212 154.1C328.212 152.784 327.97 151.771 327.484 151.062C327.008 150.343 326.341 149.984 325.482 149.984C324.633 149.984 323.961 150.343 323.466 151.062C322.99 151.781 322.752 152.793 322.752 154.1C322.752 155.407 322.99 156.419 323.466 157.138ZM337.031 157.796C336.387 158.711 335.477 159.168 334.301 159.168C333.134 159.168 332.219 158.711 331.557 157.796C330.913 156.872 330.591 155.64 330.591 154.1C330.591 152.551 330.913 151.323 331.557 150.418C332.219 149.494 333.134 149.032 334.301 149.032C335.477 149.032 336.387 149.494 337.031 150.418C337.684 151.323 338.011 152.551 338.011 154.1C338.011 155.649 337.684 156.881 337.031 157.796ZM332.285 157.138C332.779 157.857 333.451 158.216 334.301 158.216C335.159 158.216 335.827 157.857 336.303 157.138C336.788 156.429 337.031 155.416 337.031 154.1C337.031 152.784 336.788 151.771 336.303 151.062C335.827 150.343 335.159 149.984 334.301 149.984C333.451 149.984 332.779 150.343 332.285 151.062C331.809 151.781 331.571 152.793 331.571 154.1C331.571 155.407 331.809 156.419 332.285 157.138ZM348.649 150.124L346.367 153.274C347.142 153.367 347.786 153.671 348.299 154.184C348.812 154.669 349.069 155.327 349.069 156.158C349.069 157.082 348.747 157.819 348.103 158.37C347.478 158.902 346.703 159.168 345.779 159.168C345.042 159.168 344.388 159 343.819 158.664C343.25 158.319 342.853 157.838 342.629 157.222L343.441 156.746C343.6 157.222 343.88 157.586 344.281 157.838C344.692 158.09 345.191 158.216 345.779 158.216C346.47 158.216 347.025 158.034 347.445 157.67C347.874 157.297 348.089 156.793 348.089 156.158C348.089 155.523 347.874 155.024 347.445 154.66C347.025 154.287 346.47 154.1 345.779 154.1V154.086L345.765 154.1H345.499L345.079 153.456L347.515 150.124H342.909V149.2H348.649V150.124ZM356.416 156.116H357.676V157.04H356.416V159H355.436V157.04H350.256V156.116L353.896 149.2H354.974L351.334 156.116H355.436V153.12H356.416V156.116ZM360.085 153.148H361.737C362.661 153.148 363.436 153.419 364.061 153.96C364.705 154.492 365.027 155.225 365.027 156.158C365.027 157.082 364.705 157.819 364.061 158.37C363.436 158.902 362.661 159.168 361.737 159.168C360.981 159.168 360.314 158.986 359.735 158.622C359.166 158.249 358.783 157.735 358.587 157.082L359.413 156.606C359.553 157.119 359.829 157.516 360.239 157.796C360.65 158.076 361.149 158.216 361.737 158.216C362.428 158.216 362.983 158.034 363.403 157.67C363.833 157.297 364.047 156.793 364.047 156.158C364.047 155.523 363.833 155.024 363.403 154.66C362.983 154.287 362.428 154.1 361.737 154.1H359.077L359.427 149.2H364.677V150.124H360.295L360.085 153.148ZM375.528 150.124L373.246 153.274C374.021 153.367 374.665 153.671 375.178 154.184C375.691 154.669 375.948 155.327 375.948 156.158C375.948 157.082 375.626 157.819 374.982 158.37C374.357 158.902 373.582 159.168 372.658 159.168C371.921 159.168 371.267 159 370.698 158.664C370.129 158.319 369.732 157.838 369.508 157.222L370.32 156.746C370.479 157.222 370.759 157.586 371.16 157.838C371.571 158.09 372.07 158.216 372.658 158.216C373.349 158.216 373.904 158.034 374.324 157.67C374.753 157.297 374.968 156.793 374.968 156.158C374.968 155.523 374.753 155.024 374.324 154.66C373.904 154.287 373.349 154.1 372.658 154.1V154.086L372.644 154.1H372.378L371.958 153.456L374.394 150.124H369.788V149.2H375.528V150.124ZM383.295 156.116H384.555V157.04H383.295V159H382.315V157.04H377.135V156.116L380.775 149.2H381.853L378.213 156.116H382.315V153.12H383.295V156.116ZM386.964 153.148H388.616C389.54 153.148 390.315 153.419 390.94 153.96C391.584 154.492 391.906 155.225 391.906 156.158C391.906 157.082 391.584 157.819 390.94 158.37C390.315 158.902 389.54 159.168 388.616 159.168C387.86 159.168 387.193 158.986 386.614 158.622C386.045 158.249 385.662 157.735 385.466 157.082L386.292 156.606C386.432 157.119 386.708 157.516 387.118 157.796C387.529 158.076 388.028 158.216 388.616 158.216C389.307 158.216 389.862 158.034 390.282 157.67C390.712 157.297 390.926 156.793 390.926 156.158C390.926 155.523 390.712 155.024 390.282 154.66C389.862 154.287 389.307 154.1 388.616 154.1H385.956L386.306 149.2H391.556V150.124H387.174L386.964 153.148Z" fill="black"/>
</svg>
