<svg width="408" height="179" viewBox="0 0 408 179" fill="none" xmlns="http://www.w3.org/2000/svg">
<rect width="408" height="179" rx="10" fill="white"/>
<circle cx="36" cy="36" r="21" fill="#F1F9FF"/>
<path d="M35.0877 29.188L31.8424 46.521L35.8185 46.4842L38.3183 32.1237L35.0877 29.188Z" fill="#0063A9"/>
<path d="M39.1321 27.0929L38.6529 30.0285L33.6412 25.479H37.6914C38.5849 25.479 39.2711 26.2448 39.1321 27.0929Z" fill="#DD0613"/>
<path d="M68.35 31.5V18.9H70.024V31.5H68.35ZM73.915 24.93C73.915 25.506 74.509 25.956 75.697 26.28C76.141 26.376 76.513 26.478 76.813 26.586C77.125 26.682 77.461 26.832 77.821 27.036C78.193 27.24 78.475 27.51 78.667 27.846C78.859 28.182 78.955 28.578 78.955 29.034C78.955 29.85 78.637 30.504 78.001 30.996C77.365 31.488 76.561 31.734 75.589 31.734C74.725 31.734 73.975 31.548 73.339 31.176C72.715 30.792 72.271 30.276 72.007 29.628L73.357 28.854C73.501 29.286 73.771 29.628 74.167 29.88C74.563 30.132 75.037 30.258 75.589 30.258C76.129 30.258 76.561 30.156 76.885 29.952C77.209 29.748 77.371 29.442 77.371 29.034C77.371 28.422 76.777 27.978 75.589 27.702C75.193 27.594 74.893 27.51 74.689 27.45C74.485 27.39 74.203 27.282 73.843 27.126C73.495 26.97 73.231 26.808 73.051 26.64C72.871 26.46 72.703 26.226 72.547 25.938C72.403 25.638 72.331 25.308 72.331 24.948C72.331 24.168 72.631 23.526 73.231 23.022C73.843 22.518 74.605 22.266 75.517 22.266C76.249 22.266 76.897 22.434 77.461 22.77C78.037 23.094 78.469 23.55 78.757 24.138L77.443 24.876C77.119 24.108 76.477 23.724 75.517 23.724C75.061 23.724 74.677 23.832 74.365 24.048C74.065 24.264 73.915 24.558 73.915 24.93ZM83.8892 26.856L88.3352 31.5H86.3912L82.2872 27.234V31.5H80.7212V18.9H82.2872V26.478L86.1752 22.5H88.1912L83.8892 26.856ZM97.6053 27.72H90.0633C90.2193 28.512 90.5853 29.136 91.1613 29.592C91.7373 30.036 92.4573 30.258 93.3213 30.258C94.5093 30.258 95.3733 29.82 95.9133 28.944L97.2453 29.7C96.3573 31.056 95.0373 31.734 93.2853 31.734C91.8693 31.734 90.7053 31.29 89.7933 30.402C88.9053 29.49 88.4613 28.356 88.4613 27C88.4613 25.632 88.8993 24.504 89.7753 23.616C90.6513 22.716 91.7853 22.266 93.1773 22.266C94.4973 22.266 95.5713 22.734 96.3993 23.67C97.2393 24.582 97.6593 25.698 97.6593 27.018C97.6593 27.246 97.6413 27.48 97.6053 27.72ZM93.1773 23.742C92.3493 23.742 91.6533 23.976 91.0893 24.444C90.5373 24.912 90.1953 25.548 90.0633 26.352H96.0753C95.9433 25.524 95.6133 24.882 95.0853 24.426C94.5573 23.97 93.9213 23.742 93.1773 23.742ZM103.941 22.266C104.997 22.266 105.843 22.602 106.479 23.274C107.115 23.934 107.433 24.834 107.433 25.974V31.5H105.867V26.064C105.867 25.344 105.669 24.78 105.273 24.372C104.877 23.964 104.331 23.76 103.635 23.76C102.831 23.76 102.195 24.012 101.727 24.516C101.259 25.008 101.025 25.746 101.025 26.73V31.5H99.4595V22.5H101.025V23.796C101.649 22.776 102.621 22.266 103.941 22.266ZM117.072 24.048V18.9H118.638V31.5H117.072V29.952C116.304 31.14 115.17 31.734 113.67 31.734C112.398 31.734 111.324 31.278 110.448 30.366C109.56 29.442 109.116 28.32 109.116 27C109.116 25.692 109.56 24.576 110.448 23.652C111.336 22.728 112.41 22.266 113.67 22.266C115.17 22.266 116.304 22.86 117.072 24.048ZM113.868 30.222C114.78 30.222 115.542 29.916 116.154 29.304C116.766 28.668 117.072 27.9 117.072 27C117.072 26.088 116.766 25.326 116.154 24.714C115.542 24.09 114.78 23.778 113.868 23.778C112.968 23.778 112.212 24.09 111.6 24.714C110.988 25.326 110.682 26.088 110.682 27C110.682 27.9 110.988 28.668 111.6 29.304C112.212 29.916 112.968 30.222 113.868 30.222ZM129.65 27.72H122.108C122.264 28.512 122.63 29.136 123.206 29.592C123.782 30.036 124.502 30.258 125.366 30.258C126.554 30.258 127.418 29.82 127.958 28.944L129.29 29.7C128.402 31.056 127.082 31.734 125.33 31.734C123.914 31.734 122.75 31.29 121.838 30.402C120.95 29.49 120.506 28.356 120.506 27C120.506 25.632 120.944 24.504 121.82 23.616C122.696 22.716 123.83 22.266 125.222 22.266C126.542 22.266 127.616 22.734 128.444 23.67C129.284 24.582 129.704 25.698 129.704 27.018C129.704 27.246 129.686 27.48 129.65 27.72ZM125.222 23.742C124.394 23.742 123.698 23.976 123.134 24.444C122.582 24.912 122.24 25.548 122.108 26.352H128.12C127.988 25.524 127.658 24.882 127.13 24.426C126.602 23.97 125.966 23.742 125.222 23.742ZM133.07 22.5V24.012C133.586 22.896 134.522 22.338 135.878 22.338V23.976C135.11 23.94 134.45 24.144 133.898 24.588C133.346 25.032 133.07 25.746 133.07 26.73V31.5H131.504V22.5H133.07ZM146.393 22.266C147.449 22.266 148.295 22.602 148.931 23.274C149.567 23.934 149.885 24.834 149.885 25.974V31.5H148.319V26.064C148.319 25.344 148.121 24.78 147.725 24.372C147.329 23.964 146.783 23.76 146.087 23.76C145.283 23.76 144.647 24.012 144.179 24.516C143.711 25.008 143.477 25.746 143.477 26.73V31.5H141.911V18.9H143.477V23.796C144.101 22.776 145.073 22.266 146.393 22.266ZM159.667 30.366C158.755 31.278 157.633 31.734 156.301 31.734C154.969 31.734 153.847 31.278 152.935 30.366C152.023 29.454 151.567 28.332 151.567 27C151.567 25.668 152.023 24.546 152.935 23.634C153.847 22.722 154.969 22.266 156.301 22.266C157.633 22.266 158.755 22.722 159.667 23.634C160.591 24.558 161.053 25.68 161.053 27C161.053 28.32 160.591 29.442 159.667 30.366ZM156.301 30.204C157.201 30.204 157.957 29.898 158.569 29.286C159.181 28.674 159.487 27.912 159.487 27C159.487 26.088 159.181 25.326 158.569 24.714C157.957 24.102 157.201 23.796 156.301 23.796C155.413 23.796 154.663 24.102 154.051 24.714C153.439 25.326 153.133 26.088 153.133 27C153.133 27.912 153.439 28.674 154.051 29.286C154.663 29.898 155.413 30.204 156.301 30.204ZM172.619 22.266C173.639 22.266 174.455 22.596 175.067 23.256C175.691 23.916 176.003 24.798 176.003 25.902V31.5H174.437V25.956C174.437 25.272 174.257 24.738 173.897 24.354C173.549 23.958 173.069 23.76 172.457 23.76C171.761 23.76 171.215 23.994 170.819 24.462C170.435 24.918 170.243 25.596 170.243 26.496V31.5H168.677V25.956C168.677 25.272 168.503 24.738 168.155 24.354C167.819 23.958 167.357 23.76 166.769 23.76C166.085 23.76 165.527 24 165.095 24.48C164.675 24.948 164.465 25.62 164.465 26.496V31.5H162.899V22.5H164.465V23.706C165.077 22.746 165.971 22.266 167.147 22.266C168.359 22.266 169.241 22.776 169.793 23.796C170.417 22.776 171.359 22.266 172.619 22.266ZM186.814 27.72H179.272C179.428 28.512 179.794 29.136 180.37 29.592C180.946 30.036 181.666 30.258 182.53 30.258C183.718 30.258 184.582 29.82 185.122 28.944L186.454 29.7C185.566 31.056 184.246 31.734 182.494 31.734C181.078 31.734 179.914 31.29 179.002 30.402C178.114 29.49 177.67 28.356 177.67 27C177.67 25.632 178.108 24.504 178.984 23.616C179.86 22.716 180.994 22.266 182.386 22.266C183.706 22.266 184.78 22.734 185.608 23.67C186.448 24.582 186.868 25.698 186.868 27.018C186.868 27.246 186.85 27.48 186.814 27.72ZM182.386 23.742C181.558 23.742 180.862 23.976 180.298 24.444C179.746 24.912 179.404 25.548 179.272 26.352H185.284C185.152 25.524 184.822 24.882 184.294 24.426C183.766 23.97 183.13 23.742 182.386 23.742Z" fill="black"/>
<path d="M72.868 51.744C72.252 52.344 71.508 52.644 70.636 52.644C69.748 52.644 69 52.344 68.392 51.744C67.784 51.136 67.48 50.388 67.48 49.5C67.48 48.612 67.784 47.868 68.392 47.268C69 46.66 69.748 46.356 70.636 46.356C71.516 46.356 72.26 46.66 72.868 47.268C73.484 47.868 73.792 48.612 73.792 49.5C73.792 50.38 73.484 51.128 72.868 51.744ZM68.956 51.192C69.412 51.648 69.972 51.876 70.636 51.876C71.3 51.876 71.86 51.648 72.316 51.192C72.772 50.72 73 50.156 73 49.5C73 48.836 72.772 48.276 72.316 47.82C71.86 47.356 71.3 47.124 70.636 47.124C69.972 47.124 69.412 47.356 68.956 47.82C68.5 48.276 68.272 48.836 68.272 49.5C68.272 50.156 68.5 50.72 68.956 51.192ZM74.163 46.5H79.203V47.268H77.079V52.5H76.287V47.268H74.163V46.5ZM81.8001 49.38L85.0161 52.5H83.9601L80.9601 49.608V52.5H80.1681V46.5H80.9601V49.152L83.8161 46.5H84.8961L81.8001 49.38ZM89.3138 46.356C90.1698 46.356 90.8978 46.66 91.4978 47.268C92.1058 47.876 92.4098 48.62 92.4098 49.5C92.4098 50.38 92.1058 51.124 91.4978 51.732C90.8978 52.34 90.1698 52.644 89.3138 52.644C88.2498 52.644 87.4418 52.204 86.8898 51.324V54.9H86.0978V46.5H86.8898V47.676C87.4418 46.796 88.2498 46.356 89.3138 46.356ZM87.5738 51.192C88.0298 51.648 88.5898 51.876 89.2538 51.876C89.9178 51.876 90.4778 51.648 90.9338 51.192C91.3898 50.72 91.6178 50.156 91.6178 49.5C91.6178 48.836 91.3898 48.276 90.9338 47.82C90.4778 47.356 89.9178 47.124 89.2538 47.124C88.5898 47.124 88.0298 47.356 87.5738 47.82C87.1178 48.276 86.8898 48.836 86.8898 49.5C86.8898 50.156 87.1178 50.72 87.5738 51.192ZM94.5187 48.78H96.1627C96.7147 48.78 97.1867 48.956 97.5787 49.308C97.9707 49.652 98.1667 50.096 98.1667 50.64C98.1667 51.192 97.9707 51.64 97.5787 51.984C97.2027 52.328 96.7307 52.5 96.1627 52.5H93.7267V46.5H94.5187V48.78ZM99.0067 52.5V46.5H99.7987V52.5H99.0067ZM94.5187 51.732H96.1627C96.5067 51.732 96.7947 51.632 97.0267 51.432C97.2587 51.224 97.3747 50.96 97.3747 50.64C97.3747 50.32 97.2587 50.06 97.0267 49.86C96.7947 49.652 96.5067 49.548 96.1627 49.548H94.5187V51.732ZM100.765 46.5H105.805V47.268H103.681V52.5H102.889V47.268H100.765V46.5ZM107.562 48.78H109.206C109.758 48.78 110.23 48.956 110.622 49.308C111.014 49.652 111.21 50.096 111.21 50.64C111.21 51.192 111.014 51.64 110.622 51.984C110.246 52.328 109.774 52.5 109.206 52.5H106.77V46.5H107.562V48.78ZM107.562 51.732H109.206C109.55 51.732 109.838 51.632 110.07 51.432C110.302 51.224 110.418 50.96 110.418 50.64C110.418 50.32 110.302 50.06 110.07 49.86C109.838 49.652 109.55 49.548 109.206 49.548H107.562V51.732ZM119.222 49.416C119.878 49.656 120.206 50.124 120.206 50.82C120.206 51.316 120.038 51.72 119.702 52.032C119.374 52.344 118.914 52.5 118.322 52.5H115.406V46.5H118.082C118.658 46.5 119.106 46.648 119.426 46.944C119.754 47.24 119.918 47.628 119.918 48.108C119.918 48.708 119.686 49.144 119.222 49.416ZM118.082 47.268H116.198V49.092H118.082C118.778 49.092 119.126 48.78 119.126 48.156C119.126 47.876 119.034 47.66 118.85 47.508C118.674 47.348 118.418 47.268 118.082 47.268ZM116.198 51.732H118.322C118.674 51.732 118.942 51.648 119.126 51.48C119.318 51.312 119.414 51.076 119.414 50.772C119.414 50.484 119.318 50.26 119.126 50.1C118.942 49.94 118.674 49.86 118.322 49.86H116.198V51.732ZM126.038 49.38L129.254 52.5H128.198L125.198 49.608V52.5H124.406V46.5H125.198V49.152L128.054 46.5H129.134L126.038 49.38ZM134.898 47.676V46.5H135.69V52.5H134.898V51.324C134.346 52.204 133.538 52.644 132.474 52.644C131.618 52.644 130.886 52.34 130.278 51.732C129.678 51.124 129.378 50.38 129.378 49.5C129.378 48.62 129.678 47.876 130.278 47.268C130.886 46.66 131.618 46.356 132.474 46.356C133.538 46.356 134.346 46.796 134.898 47.676ZM130.854 51.192C131.31 51.648 131.87 51.876 132.534 51.876C133.198 51.876 133.758 51.648 134.214 51.192C134.67 50.72 134.898 50.156 134.898 49.5C134.898 48.836 134.67 48.276 134.214 47.82C133.758 47.356 133.198 47.124 132.534 47.124C131.87 47.124 131.31 47.356 130.854 47.82C130.398 48.276 130.17 48.836 130.17 49.5C130.17 50.156 130.398 50.72 130.854 51.192ZM140.583 46.356C141.439 46.356 142.167 46.66 142.767 47.268C143.375 47.876 143.679 48.62 143.679 49.5C143.679 50.38 143.375 51.124 142.767 51.732C142.167 52.34 141.439 52.644 140.583 52.644C139.519 52.644 138.711 52.204 138.159 51.324V54.9H137.367V46.5H138.159V47.676C138.711 46.796 139.519 46.356 140.583 46.356ZM138.843 51.192C139.299 51.648 139.859 51.876 140.523 51.876C141.187 51.876 141.747 51.648 142.203 51.192C142.659 50.72 142.887 50.156 142.887 49.5C142.887 48.836 142.659 48.276 142.203 47.82C141.747 47.356 141.187 47.124 140.523 47.124C139.859 47.124 139.299 47.356 138.843 47.82C138.387 48.276 138.159 48.836 138.159 49.5C138.159 50.156 138.387 50.72 138.843 51.192ZM144.042 46.5H149.082V47.268H146.958V52.5H146.166V47.268H144.042V46.5ZM152.585 46.356C153.481 46.356 154.197 46.672 154.733 47.304C155.285 47.928 155.561 48.668 155.561 49.524C155.561 49.564 155.553 49.688 155.537 49.896H150.269C150.349 50.496 150.605 50.976 151.037 51.336C151.469 51.696 152.009 51.876 152.657 51.876C153.569 51.876 154.213 51.536 154.589 50.856L155.285 51.264C155.021 51.696 154.657 52.036 154.193 52.284C153.737 52.524 153.221 52.644 152.645 52.644C151.701 52.644 150.933 52.348 150.341 51.756C149.749 51.164 149.453 50.412 149.453 49.5C149.453 48.596 149.745 47.848 150.329 47.256C150.913 46.656 151.665 46.356 152.585 46.356ZM152.585 47.124C151.961 47.124 151.437 47.308 151.013 47.676C150.597 48.044 150.349 48.528 150.269 49.128H154.745C154.657 48.488 154.413 47.996 154.013 47.652C153.597 47.3 153.121 47.124 152.585 47.124Z" fill="#0062D5"/>
<path d="M67 54.9H155.981V55.5H67V54.9Z" fill="#0062D5"/>
<path fill-rule="evenodd" clip-rule="evenodd" d="M21.5 92.4646C18.5341 92.4646 16.0321 94.6193 16.2359 97.3027C16.2652 97.6876 16.3088 98.0226 16.3684 98.2885C16.6687 99.6297 17.6114 100.962 18.6733 102.093C19.7261 103.215 20.847 104.087 21.4263 104.51C21.4726 104.544 21.5274 104.544 21.5737 104.51C22.153 104.087 23.2739 103.215 24.3267 102.093C25.3886 100.962 26.3313 99.6297 26.6316 98.2885C26.6912 98.0226 26.7348 97.6876 26.7641 97.3027C26.9679 94.6193 24.4659 92.4646 21.5 92.4646ZM15.14 97.3784C14.88 93.9547 18.0452 91.4167 21.5 91.4167C24.9548 91.4167 28.12 93.9547 27.86 97.3784C27.8289 97.7885 27.7804 98.1761 27.7062 98.5073C27.3462 100.115 26.2521 101.613 25.1454 102.792C24.0296 103.981 22.8502 104.898 22.2419 105.342C21.8014 105.664 21.1986 105.664 20.7581 105.342C20.1498 104.898 18.9704 103.981 17.8546 102.792C16.7479 101.613 15.6538 100.115 15.2938 98.5073C15.2196 98.1761 15.1711 97.7885 15.14 97.3784Z" fill="#0063A9"/>
<path fill-rule="evenodd" clip-rule="evenodd" d="M21.5 96.6561C20.9943 96.6561 20.5843 97.0471 20.5843 97.5294C20.5843 98.0116 20.9943 98.4026 21.5 98.4026C22.0057 98.4026 22.4157 98.0116 22.4157 97.5294C22.4157 97.0471 22.0057 96.6561 21.5 96.6561ZM19.4855 97.5294C19.4855 96.4683 20.3874 95.6082 21.5 95.6082C22.6126 95.6082 23.5145 96.4683 23.5145 97.5294C23.5145 98.5904 22.6126 99.4505 21.5 99.4505C20.3874 99.4505 19.4855 98.5904 19.4855 97.5294Z" fill="#0063A9"/>
<path d="M38.136 97.96L42.98 103H41.692L37.1 98.254V103H36.12V93.2H37.1V97.68L41.552 93.2H42.84L38.136 97.96ZM45.0251 98.66H46.9431C47.5871 98.66 48.1378 98.8653 48.5951 99.276C49.0524 99.6773 49.2811 100.195 49.2811 100.83C49.2811 101.474 49.0524 101.997 48.5951 102.398C48.1564 102.799 47.6058 103 46.9431 103H44.1011V96H45.0251V98.66ZM50.2611 103V96H51.1851V103H50.2611ZM45.0251 102.104H46.9431C47.3444 102.104 47.6804 101.987 47.9511 101.754C48.2218 101.511 48.3571 101.203 48.3571 100.83C48.3571 100.457 48.2218 100.153 47.9511 99.92C47.6804 99.6773 47.3444 99.556 46.9431 99.556H45.0251V102.104ZM56.9039 95.832C57.9025 95.832 58.7519 96.1867 59.4519 96.896C60.1612 97.6053 60.5159 98.4733 60.5159 99.5C60.5159 100.527 60.1612 101.395 59.4519 102.104C58.7519 102.813 57.9025 103.168 56.9039 103.168C55.6625 103.168 54.7199 102.655 54.0759 101.628V105.8H53.1519V96H54.0759V97.372C54.7199 96.3453 55.6625 95.832 56.9039 95.832ZM54.8739 101.474C55.4059 102.006 56.0592 102.272 56.8339 102.272C57.6085 102.272 58.2619 102.006 58.7939 101.474C59.3259 100.923 59.5919 100.265 59.5919 99.5C59.5919 98.7253 59.3259 98.072 58.7939 97.54C58.2619 96.9987 57.6085 96.728 56.8339 96.728C56.0592 96.728 55.4059 96.9987 54.8739 97.54C54.3419 98.072 54.0759 98.7253 54.0759 99.5C54.0759 100.265 54.3419 100.923 54.8739 101.474ZM62.0523 96H66.5323V96.896H62.9763V103H62.0523V96ZM68.5817 98.66H70.4997C71.1437 98.66 71.6944 98.8653 72.1517 99.276C72.6091 99.6773 72.8377 100.195 72.8377 100.83C72.8377 101.474 72.6091 101.997 72.1517 102.398C71.7131 102.799 71.1624 103 70.4997 103H67.6577V96H68.5817V98.66ZM73.8177 103V96H74.7417V103H73.8177ZM68.5817 102.104H70.4997C70.9011 102.104 71.2371 101.987 71.5077 101.754C71.7784 101.511 71.9137 101.203 71.9137 100.83C71.9137 100.457 71.7784 100.153 71.5077 99.92C71.2371 99.6773 70.9011 99.556 70.4997 99.556H68.5817V102.104ZM80.3205 99.402C81.1325 99.71 81.5385 100.27 81.5385 101.082C81.5385 101.67 81.3098 102.165 80.8525 102.566C80.4138 102.967 79.7698 103.168 78.9205 103.168C77.5018 103.168 76.5778 102.608 76.1485 101.488L76.9325 101.026C77.2312 101.857 77.8938 102.272 78.9205 102.272C79.4525 102.272 79.8678 102.16 80.1665 101.936C80.4652 101.703 80.6145 101.399 80.6145 101.026C80.6145 100.69 80.4932 100.424 80.2505 100.228C80.0078 100.023 79.6812 99.92 79.2705 99.92H78.2485V99.024H78.9905C79.3918 99.024 79.7045 98.926 79.9285 98.73C80.1618 98.5247 80.2785 98.2447 80.2785 97.89C80.2785 97.554 80.1385 97.2787 79.8585 97.064C79.5878 96.84 79.2285 96.728 78.7805 96.728C77.9125 96.728 77.3292 97.078 77.0305 97.778L76.2605 97.33C76.7272 96.3313 77.5672 95.832 78.7805 95.832C79.5272 95.832 80.1152 96.028 80.5445 96.42C80.9832 96.8027 81.2025 97.274 81.2025 97.834C81.2025 98.5527 80.9085 99.0753 80.3205 99.402ZM86.2049 103.168C85.1502 103.168 84.2729 102.818 83.5729 102.118C82.8729 101.399 82.5229 100.527 82.5229 99.5C82.5229 98.464 82.8729 97.596 83.5729 96.896C84.2729 96.1867 85.1502 95.832 86.2049 95.832C86.8956 95.832 87.5162 96 88.0669 96.336C88.6176 96.6627 89.0189 97.106 89.2709 97.666L88.5149 98.1C88.3282 97.68 88.0249 97.3487 87.6049 97.106C87.1942 96.854 86.7276 96.728 86.2049 96.728C85.4302 96.728 84.7769 96.9987 84.2449 97.54C83.7129 98.072 83.4469 98.7253 83.4469 99.5C83.4469 100.265 83.7129 100.923 84.2449 101.474C84.7769 102.006 85.4302 102.272 86.2049 102.272C86.7182 102.272 87.1802 102.151 87.5909 101.908C88.0109 101.665 88.3376 101.329 88.5709 100.9L89.3409 101.348C89.0516 101.908 88.6269 102.351 88.0669 102.678C87.5069 103.005 86.8862 103.168 86.2049 103.168ZM89.6908 96H95.5708V96.896H93.0928V103H92.1688V96.896H89.6908V96ZM102.443 97.372V96H103.367V103H102.443V101.628C101.799 102.655 100.857 103.168 99.6154 103.168C98.6167 103.168 97.7627 102.813 97.0534 102.104C96.3534 101.395 96.0034 100.527 96.0034 99.5C96.0034 98.4733 96.3534 97.6053 97.0534 96.896C97.7627 96.1867 98.6167 95.832 99.6154 95.832C100.857 95.832 101.799 96.3453 102.443 97.372ZM97.7254 101.474C98.2574 102.006 98.9107 102.272 99.6854 102.272C100.46 102.272 101.113 102.006 101.645 101.474C102.177 100.923 102.443 100.265 102.443 99.5C102.443 98.7253 102.177 98.072 101.645 97.54C101.113 96.9987 100.46 96.728 99.6854 96.728C98.9107 96.728 98.2574 96.9987 97.7254 97.54C97.1934 98.072 96.9274 98.7253 96.9274 99.5C96.9274 100.265 97.1934 100.923 97.7254 101.474ZM110.28 99.052V96H111.204V103H110.28V99.948H106.248V103H105.324V96H106.248V99.052H110.28ZM113.578 101.81H114.698L113.858 104.96H113.018L113.578 101.81ZM120.021 96H124.501V96.896H120.945V103H120.021V96ZM125.769 102.37C125.769 102.585 125.694 102.767 125.545 102.916C125.395 103.065 125.213 103.14 124.999 103.14C124.784 103.14 124.602 103.065 124.453 102.916C124.303 102.767 124.229 102.585 124.229 102.37C124.229 102.155 124.303 101.973 124.453 101.824C124.602 101.675 124.784 101.6 124.999 101.6C125.213 101.6 125.395 101.675 125.545 101.824C125.694 101.973 125.769 102.155 125.769 102.37ZM132.215 97.12H134.875C135.678 97.12 136.369 97.4093 136.947 97.988C137.526 98.5667 137.815 99.2573 137.815 100.06C137.815 100.872 137.526 101.567 136.947 102.146C136.378 102.715 135.687 103 134.875 103H131.235V93.2H136.975V94.124H132.215V97.12ZM132.215 102.076H134.875C135.417 102.076 135.879 101.88 136.261 101.488C136.644 101.087 136.835 100.611 136.835 100.06C136.835 99.5187 136.644 99.0473 136.261 98.646C135.888 98.2447 135.426 98.044 134.875 98.044H132.215V102.076ZM140.209 101.39L144.381 96H145.165V103H144.241V97.61L140.069 103H139.285V96H140.209V101.39ZM155.575 102.104V96H156.499V103H147.119V96H148.043V102.104H151.347V96H152.271V102.104H155.575ZM160.357 99.36L164.109 103H162.877L159.377 99.626V103H158.453V96H159.377V99.094L162.709 96H163.969L160.357 99.36ZM167.907 95.832C168.953 95.832 169.788 96.2007 170.413 96.938C171.057 97.666 171.379 98.5293 171.379 99.528C171.379 99.5747 171.37 99.7193 171.351 99.962H165.205C165.299 100.662 165.597 101.222 166.101 101.642C166.605 102.062 167.235 102.272 167.991 102.272C169.055 102.272 169.807 101.875 170.245 101.082L171.057 101.558C170.749 102.062 170.325 102.459 169.783 102.748C169.251 103.028 168.649 103.168 167.977 103.168C166.876 103.168 165.98 102.823 165.289 102.132C164.599 101.441 164.253 100.564 164.253 99.5C164.253 98.4453 164.594 97.5727 165.275 96.882C165.957 96.182 166.834 95.832 167.907 95.832ZM167.907 96.728C167.179 96.728 166.568 96.9427 166.073 97.372C165.588 97.8013 165.299 98.366 165.205 99.066H170.427C170.325 98.3193 170.04 97.7453 169.573 97.344C169.088 96.9333 168.533 96.728 167.907 96.728ZM174.753 99.36L178.505 103H177.273L173.773 99.626V103H172.849V96H173.773V99.094L177.105 96H178.365L174.753 99.36ZM38.752 118.866L41.02 113H42L39.004 120.644C38.724 121.353 38.332 121.899 37.828 122.282C37.3333 122.674 36.7827 122.847 36.176 122.8V121.932C37.016 122.035 37.6553 121.549 38.094 120.476L38.276 120.042L35.14 113H36.12L38.752 118.866ZM43.4209 113H48.4329V120H47.5089V113.896H44.3449V117.018C44.3449 118.185 44.1209 118.987 43.6729 119.426C43.2342 119.865 42.6276 120.056 41.8529 120V119.132C42.3942 119.188 42.7909 119.057 43.0429 118.74C43.2949 118.423 43.4209 117.849 43.4209 117.018V113ZM51.7902 119.37C51.7902 119.585 51.7155 119.767 51.5662 119.916C51.4168 120.065 51.2348 120.14 51.0202 120.14C50.8055 120.14 50.6235 120.065 50.4742 119.916C50.3248 119.767 50.2502 119.585 50.2502 119.37C50.2502 119.155 50.3248 118.973 50.4742 118.824C50.6235 118.675 50.8055 118.6 51.0202 118.6C51.2348 118.6 51.4168 118.675 51.5662 118.824C51.7155 118.973 51.7902 119.155 51.7902 119.37ZM56.3467 120V119.132C57.0281 119.225 57.5367 119.015 57.8727 118.502C58.2181 117.989 58.3907 117.037 58.3907 115.646V110.2H64.7467V120H63.7667V111.124H59.3707V115.674C59.3707 116.561 59.3007 117.303 59.1607 117.9C59.0207 118.497 58.8107 118.95 58.5307 119.258C58.2601 119.566 57.9474 119.776 57.5927 119.888C57.2474 120 56.8321 120.037 56.3467 120ZM70.0851 112.832C71.1304 112.832 71.9658 113.201 72.5911 113.938C73.2351 114.666 73.5571 115.529 73.5571 116.528C73.5571 116.575 73.5478 116.719 73.5291 116.962H67.3831C67.4764 117.662 67.7751 118.222 68.2791 118.642C68.7831 119.062 69.4131 119.272 70.1691 119.272C71.2331 119.272 71.9844 118.875 72.4231 118.082L73.2351 118.558C72.9271 119.062 72.5024 119.459 71.9611 119.748C71.4291 120.028 70.8271 120.168 70.1551 120.168C69.0538 120.168 68.1578 119.823 67.4671 119.132C66.7764 118.441 66.4311 117.564 66.4311 116.5C66.4311 115.445 66.7718 114.573 67.4531 113.882C68.1344 113.182 69.0118 112.832 70.0851 112.832ZM70.0851 113.728C69.3571 113.728 68.7458 113.943 68.2511 114.372C67.7658 114.801 67.4764 115.366 67.3831 116.066H72.6051C72.5024 115.319 72.2178 114.745 71.7511 114.344C71.2658 113.933 70.7104 113.728 70.0851 113.728ZM78.7789 112.832C79.7775 112.832 80.6269 113.187 81.3269 113.896C82.0362 114.605 82.3909 115.473 82.3909 116.5C82.3909 117.527 82.0362 118.395 81.3269 119.104C80.6269 119.813 79.7775 120.168 78.7789 120.168C77.5375 120.168 76.5949 119.655 75.9509 118.628V122.8H75.0269V113H75.9509V114.372C76.5949 113.345 77.5375 112.832 78.7789 112.832ZM76.7489 118.474C77.2809 119.006 77.9342 119.272 78.7089 119.272C79.4835 119.272 80.1369 119.006 80.6689 118.474C81.2009 117.923 81.4669 117.265 81.4669 116.5C81.4669 115.725 81.2009 115.072 80.6689 114.54C80.1369 113.999 79.4835 113.728 78.7089 113.728C77.9342 113.728 77.2809 113.999 76.7489 114.54C76.2169 115.072 75.9509 115.725 75.9509 116.5C75.9509 117.265 76.2169 117.923 76.7489 118.474ZM89.7233 113H90.7873V120H89.8633V114.414L87.4133 118.39H87.3013L84.8513 114.414V120H83.9273V113H84.9913L87.3573 116.836L89.7233 113ZM98.6116 119.118C97.893 119.818 97.025 120.168 96.0076 120.168C94.9716 120.168 94.099 119.818 93.3896 119.118C92.6803 118.409 92.3256 117.536 92.3256 116.5C92.3256 115.464 92.6803 114.596 93.3896 113.896C94.099 113.187 94.9716 112.832 96.0076 112.832C97.0343 112.832 97.9023 113.187 98.6116 113.896C99.3303 114.596 99.6896 115.464 99.6896 116.5C99.6896 117.527 99.3303 118.399 98.6116 119.118ZM94.0476 118.474C94.5796 119.006 95.233 119.272 96.0076 119.272C96.7823 119.272 97.4356 119.006 97.9676 118.474C98.4996 117.923 98.7656 117.265 98.7656 116.5C98.7656 115.725 98.4996 115.072 97.9676 114.54C97.4356 113.999 96.7823 113.728 96.0076 113.728C95.233 113.728 94.5796 113.999 94.0476 114.54C93.5156 115.072 93.2496 115.725 93.2496 116.5C93.2496 117.265 93.5156 117.923 94.0476 118.474ZM106.192 116.052V113H107.116V120H106.192V116.948H102.16V120H101.236V113H102.16V116.052H106.192ZM108.23 113H114.11V113.896H111.632V120H110.708V113.896H108.23V113ZM120.828 119.118C120.11 119.818 119.242 120.168 118.224 120.168C117.188 120.168 116.316 119.818 115.606 119.118C114.897 118.409 114.542 117.536 114.542 116.5C114.542 115.464 114.897 114.596 115.606 113.896C116.316 113.187 117.188 112.832 118.224 112.832C119.251 112.832 120.119 113.187 120.828 113.896C121.547 114.596 121.906 115.464 121.906 116.5C121.906 117.527 121.547 118.399 120.828 119.118ZM116.264 118.474C116.796 119.006 117.45 119.272 118.224 119.272C118.999 119.272 119.652 119.006 120.184 118.474C120.716 117.923 120.982 117.265 120.982 116.5C120.982 115.725 120.716 115.072 120.184 114.54C119.652 113.999 118.999 113.728 118.224 113.728C117.45 113.728 116.796 113.999 116.264 114.54C115.732 115.072 115.466 115.725 115.466 116.5C115.466 117.265 115.732 117.923 116.264 118.474ZM127.905 116.402C128.67 116.682 129.053 117.228 129.053 118.04C129.053 118.619 128.857 119.09 128.465 119.454C128.082 119.818 127.545 120 126.855 120H123.453V113H126.575C127.247 113 127.769 113.173 128.143 113.518C128.525 113.863 128.717 114.316 128.717 114.876C128.717 115.576 128.446 116.085 127.905 116.402ZM126.575 113.896H124.377V116.024H126.575C127.387 116.024 127.793 115.66 127.793 114.932C127.793 114.605 127.685 114.353 127.471 114.176C127.265 113.989 126.967 113.896 126.575 113.896ZM124.377 119.104H126.855C127.265 119.104 127.578 119.006 127.793 118.81C128.017 118.614 128.129 118.339 128.129 117.984C128.129 117.648 128.017 117.387 127.793 117.2C127.578 117.013 127.265 116.92 126.855 116.92H124.377V119.104ZM136.473 114.372V113H137.397V120H136.473V118.628C135.829 119.655 134.886 120.168 133.645 120.168C132.646 120.168 131.792 119.813 131.083 119.104C130.383 118.395 130.033 117.527 130.033 116.5C130.033 115.473 130.383 114.605 131.083 113.896C131.792 113.187 132.646 112.832 133.645 112.832C134.886 112.832 135.829 113.345 136.473 114.372ZM131.755 118.474C132.287 119.006 132.94 119.272 133.715 119.272C134.489 119.272 135.143 119.006 135.675 118.474C136.207 117.923 136.473 117.265 136.473 116.5C136.473 115.725 136.207 115.072 135.675 114.54C135.143 113.999 134.489 113.728 133.715 113.728C132.94 113.728 132.287 113.999 131.755 114.54C131.223 115.072 130.957 115.725 130.957 116.5C130.957 117.265 131.223 117.923 131.755 118.474ZM145.583 113.7C146.535 113.7 147.324 114.003 147.949 114.61C148.565 115.217 148.873 115.991 148.873 116.934C148.873 117.895 148.565 118.675 147.949 119.272C147.342 119.869 146.554 120.168 145.583 120.168C144.612 120.168 143.824 119.869 143.217 119.272C142.601 118.675 142.293 117.895 142.293 116.934C142.293 116.197 142.494 115.543 142.895 114.974L146.101 110.2H147.207L144.799 113.784C145.051 113.728 145.312 113.7 145.583 113.7ZM143.903 118.586C144.342 119.006 144.902 119.216 145.583 119.216C146.274 119.216 146.829 119.006 147.249 118.586C147.678 118.166 147.893 117.615 147.893 116.934C147.893 116.253 147.678 115.702 147.249 115.282C146.829 114.862 146.274 114.652 145.583 114.652C144.902 114.652 144.342 114.862 143.903 115.282C143.483 115.702 143.273 116.253 143.273 116.934C143.273 117.615 143.483 118.166 143.903 118.586Z" fill="black"/>
<path d="M379.667 46.6666V45.3333H387.667L384 41.6666L384.947 40.72L390.227 46L384.947 51.28L384 50.3333L387.667 46.6666H379.667Z" fill="#727272"/>
<path fill-rule="evenodd" clip-rule="evenodd" d="M23.6181 149.958C23.9441 149.958 24.2083 150.209 24.2083 150.518L24.2083 154.246C24.2083 154.394 24.1461 154.536 24.0354 154.641L21.6743 156.878C21.4438 157.096 21.0701 157.096 20.8396 156.878C20.609 156.66 20.609 156.305 20.8396 156.087L23.0278 154.014V150.518C23.0278 150.209 23.2921 149.958 23.6181 149.958Z" fill="#0063A9"/>
<path fill-rule="evenodd" clip-rule="evenodd" d="M23.5 147.506C21.9635 147.506 19.8635 147.647 18.5523 147.749C18.121 147.782 17.7824 148.121 17.749 148.552C17.6474 149.864 17.5064 151.964 17.5064 153.5C17.5064 155.037 17.6474 157.136 17.749 158.448C17.7824 158.879 18.121 159.218 18.5523 159.251C19.8635 159.353 21.9635 159.494 23.5 159.494C25.0365 159.494 27.1365 159.353 28.4477 159.251C28.879 159.218 29.2176 158.879 29.251 158.448C29.3526 157.136 29.4936 155.037 29.4936 153.5C29.4936 151.964 29.3526 149.864 29.251 148.552C29.2176 148.121 28.879 147.782 28.4477 147.749C27.1365 147.647 25.0365 147.506 23.5 147.506ZM18.4681 146.663C19.78 146.561 21.9172 146.417 23.5 146.417C25.0828 146.417 27.22 146.561 28.5319 146.663C29.4986 146.737 30.2626 147.501 30.3375 148.468C30.4391 149.78 30.5833 151.917 30.5833 153.5C30.5833 155.083 30.4391 157.22 30.3375 158.532C30.2626 159.499 29.4986 160.263 28.5319 160.338C27.22 160.439 25.0828 160.583 23.5 160.583C21.9172 160.583 19.78 160.439 18.4681 160.338C17.5014 160.263 16.7374 159.499 16.6625 158.532C16.5609 157.22 16.4167 155.083 16.4167 153.5C16.4167 151.917 16.5609 149.78 16.6625 148.468C16.7374 147.501 17.5014 146.737 18.4681 146.663Z" fill="#0063A9"/>
<path d="M44.14 156.796C43.496 157.711 42.586 158.168 41.41 158.168C40.2433 158.168 39.3287 157.711 38.666 156.796C38.022 155.872 37.7 154.64 37.7 153.1C37.7 151.551 38.022 150.323 38.666 149.418C39.3287 148.494 40.2433 148.032 41.41 148.032C42.586 148.032 43.496 148.494 44.14 149.418C44.7933 150.323 45.12 151.551 45.12 153.1C45.12 154.649 44.7933 155.881 44.14 156.796ZM39.394 156.138C39.8887 156.857 40.5607 157.216 41.41 157.216C42.2687 157.216 42.936 156.857 43.412 156.138C43.8973 155.429 44.14 154.416 44.14 153.1C44.14 151.784 43.8973 150.771 43.412 150.062C42.936 149.343 42.2687 148.984 41.41 148.984C40.5607 148.984 39.8887 149.343 39.394 150.062C38.918 150.781 38.68 151.793 38.68 153.1C38.68 154.407 38.918 155.419 39.394 156.138ZM51.3064 152.946C51.8104 153.179 52.207 153.506 52.4964 153.926C52.7857 154.346 52.9304 154.817 52.9304 155.34C52.9304 156.227 52.6177 156.922 51.9924 157.426C51.3577 157.921 50.5784 158.168 49.6544 158.168C48.7304 158.168 47.951 157.921 47.3164 157.426C46.691 156.922 46.3784 156.227 46.3784 155.34C46.3784 154.817 46.523 154.346 46.8124 153.926C47.1017 153.506 47.4984 153.179 48.0024 152.946C47.1344 152.451 46.7004 151.719 46.7004 150.748C46.7004 149.871 46.9897 149.199 47.5684 148.732C48.1657 148.265 48.861 148.032 49.6544 148.032C50.457 148.032 51.1477 148.265 51.7264 148.732C52.3144 149.199 52.6084 149.871 52.6084 150.748C52.6084 151.719 52.1744 152.451 51.3064 152.946ZM47.6804 150.748C47.6804 151.289 47.867 151.719 48.2404 152.036C48.623 152.353 49.0944 152.512 49.6544 152.512C50.2144 152.512 50.681 152.353 51.0544 152.036C51.437 151.719 51.6284 151.289 51.6284 150.748C51.6284 150.179 51.4464 149.745 51.0824 149.446C50.7184 149.138 50.2424 148.984 49.6544 148.984C49.0664 148.984 48.5904 149.138 48.2264 149.446C47.8624 149.745 47.6804 150.179 47.6804 150.748ZM47.9884 156.74C48.399 157.057 48.9544 157.216 49.6544 157.216C50.3544 157.216 50.9097 157.057 51.3204 156.74C51.7404 156.413 51.9504 155.947 51.9504 155.34C51.9504 154.743 51.7404 154.281 51.3204 153.954C50.891 153.627 50.3357 153.464 49.6544 153.464C48.973 153.464 48.4177 153.627 47.9884 153.954C47.5684 154.281 47.3584 154.743 47.3584 155.34C47.3584 155.956 47.5684 156.423 47.9884 156.74ZM55.8683 151.63C55.8683 151.845 55.7936 152.027 55.6443 152.176C55.4949 152.325 55.3129 152.4 55.0983 152.4C54.8836 152.4 54.7016 152.325 54.5523 152.176C54.4029 152.027 54.3283 151.845 54.3283 151.63C54.3283 151.415 54.4029 151.233 54.5523 151.084C54.7016 150.935 54.8836 150.86 55.0983 150.86C55.3129 150.86 55.4949 150.935 55.6443 151.084C55.7936 151.233 55.8683 151.415 55.8683 151.63ZM55.8683 157.37C55.8683 157.585 55.7936 157.767 55.6443 157.916C55.4949 158.065 55.3129 158.14 55.0983 158.14C54.8836 158.14 54.7016 158.065 54.5523 157.916C54.4029 157.767 54.3283 157.585 54.3283 157.37C54.3283 157.155 54.4029 156.973 54.5523 156.824C54.7016 156.675 54.8836 156.6 55.0983 156.6C55.3129 156.6 55.4949 156.675 55.6443 156.824C55.7936 156.973 55.8683 157.155 55.8683 157.37ZM63.8548 156.796C63.2108 157.711 62.3008 158.168 61.1248 158.168C59.9582 158.168 59.0435 157.711 58.3808 156.796C57.7368 155.872 57.4148 154.64 57.4148 153.1C57.4148 151.551 57.7368 150.323 58.3808 149.418C59.0435 148.494 59.9582 148.032 61.1248 148.032C62.3008 148.032 63.2108 148.494 63.8548 149.418C64.5082 150.323 64.8348 151.551 64.8348 153.1C64.8348 154.649 64.5082 155.881 63.8548 156.796ZM59.1088 156.138C59.6035 156.857 60.2755 157.216 61.1248 157.216C61.9835 157.216 62.6508 156.857 63.1268 156.138C63.6122 155.429 63.8548 154.416 63.8548 153.1C63.8548 151.784 63.6122 150.771 63.1268 150.062C62.6508 149.343 61.9835 148.984 61.1248 148.984C60.2755 148.984 59.6035 149.343 59.1088 150.062C58.6328 150.781 58.3948 151.793 58.3948 153.1C58.3948 154.407 58.6328 155.419 59.1088 156.138ZM72.6732 156.796C72.0292 157.711 71.1192 158.168 69.9432 158.168C68.7765 158.168 67.8619 157.711 67.1992 156.796C66.5552 155.872 66.2332 154.64 66.2332 153.1C66.2332 151.551 66.5552 150.323 67.1992 149.418C67.8619 148.494 68.7765 148.032 69.9432 148.032C71.1192 148.032 72.0292 148.494 72.6732 149.418C73.3265 150.323 73.6532 151.551 73.6532 153.1C73.6532 154.649 73.3265 155.881 72.6732 156.796ZM67.9272 156.138C68.4219 156.857 69.0939 157.216 69.9432 157.216C70.8019 157.216 71.4692 156.857 71.9452 156.138C72.4305 155.429 72.6732 154.416 72.6732 153.1C72.6732 151.784 72.4305 150.771 71.9452 150.062C71.4692 149.343 70.8019 148.984 69.9432 148.984C69.0939 148.984 68.4219 149.343 67.9272 150.062C67.4512 150.781 67.2132 151.793 67.2132 153.1C67.2132 154.407 67.4512 155.419 67.9272 156.138ZM84.0116 154.122H78.9716V153.226H84.0116V154.122ZM95.415 158H89.185V157.118L92.713 153.562C93.721 152.554 94.225 151.691 94.225 150.972C94.225 150.365 94.0337 149.885 93.651 149.53C93.2777 149.166 92.811 148.984 92.251 148.984C91.2523 148.984 90.5197 149.446 90.053 150.37L89.227 149.88C89.5257 149.283 89.941 148.825 90.473 148.508C91.005 148.191 91.5977 148.032 92.251 148.032C93.035 148.032 93.721 148.298 94.309 148.83C94.9063 149.343 95.205 150.057 95.205 150.972C95.205 151.513 95.0557 152.045 94.757 152.568C94.4583 153.081 94.001 153.646 93.385 154.262L90.585 157.048H95.415V158ZM102.77 158H96.5405V157.118L100.068 153.562C101.076 152.554 101.58 151.691 101.58 150.972C101.58 150.365 101.389 149.885 101.006 149.53C100.633 149.166 100.166 148.984 99.6065 148.984C98.6078 148.984 97.8751 149.446 97.4085 150.37L96.5825 149.88C96.8811 149.283 97.2965 148.825 97.8285 148.508C98.3605 148.191 98.9531 148.032 99.6065 148.032C100.39 148.032 101.076 148.298 101.664 148.83C102.262 149.343 102.56 150.057 102.56 150.972C102.56 151.513 102.411 152.045 102.112 152.568C101.814 153.081 101.356 153.646 100.74 154.262L97.9405 157.048H102.77V158ZM105.716 151.63C105.716 151.845 105.641 152.027 105.492 152.176C105.343 152.325 105.161 152.4 104.946 152.4C104.731 152.4 104.549 152.325 104.4 152.176C104.251 152.027 104.176 151.845 104.176 151.63C104.176 151.415 104.251 151.233 104.4 151.084C104.549 150.935 104.731 150.86 104.946 150.86C105.161 150.86 105.343 150.935 105.492 151.084C105.641 151.233 105.716 151.415 105.716 151.63ZM105.716 157.37C105.716 157.585 105.641 157.767 105.492 157.916C105.343 158.065 105.161 158.14 104.946 158.14C104.731 158.14 104.549 158.065 104.4 157.916C104.251 157.767 104.176 157.585 104.176 157.37C104.176 157.155 104.251 156.973 104.4 156.824C104.549 156.675 104.731 156.6 104.946 156.6C105.161 156.6 105.343 156.675 105.492 156.824C105.641 156.973 105.716 157.155 105.716 157.37ZM113.703 156.796C113.059 157.711 112.149 158.168 110.973 158.168C109.806 158.168 108.891 157.711 108.229 156.796C107.585 155.872 107.263 154.64 107.263 153.1C107.263 151.551 107.585 150.323 108.229 149.418C108.891 148.494 109.806 148.032 110.973 148.032C112.149 148.032 113.059 148.494 113.703 149.418C114.356 150.323 114.683 151.551 114.683 153.1C114.683 154.649 114.356 155.881 113.703 156.796ZM108.957 156.138C109.451 156.857 110.123 157.216 110.973 157.216C111.831 157.216 112.499 156.857 112.975 156.138C113.46 155.429 113.703 154.416 113.703 153.1C113.703 151.784 113.46 150.771 112.975 150.062C112.499 149.343 111.831 148.984 110.973 148.984C110.123 148.984 109.451 149.343 108.957 150.062C108.481 150.781 108.243 151.793 108.243 153.1C108.243 154.407 108.481 155.419 108.957 156.138ZM122.521 156.796C121.877 157.711 120.967 158.168 119.791 158.168C118.624 158.168 117.71 157.711 117.047 156.796C116.403 155.872 116.081 154.64 116.081 153.1C116.081 151.551 116.403 150.323 117.047 149.418C117.71 148.494 118.624 148.032 119.791 148.032C120.967 148.032 121.877 148.494 122.521 149.418C123.174 150.323 123.501 151.551 123.501 153.1C123.501 154.649 123.174 155.881 122.521 156.796ZM117.775 156.138C118.27 156.857 118.942 157.216 119.791 157.216C120.65 157.216 121.317 156.857 121.793 156.138C122.278 155.429 122.521 154.416 122.521 153.1C122.521 151.784 122.278 150.771 121.793 150.062C121.317 149.343 120.65 148.984 119.791 148.984C118.942 148.984 118.27 149.343 117.775 150.062C117.299 150.781 117.061 151.793 117.061 153.1C117.061 154.407 117.299 155.419 117.775 156.138Z" fill="black"/>
<line x1="15" y1="69.5" x2="393" y2="69.5" stroke="#E3E3E3"/>
<path d="M260.262 147.03L261.77 145.716C262.603 144.991 263.867 145.078 264.592 145.911L265.793 147.289C266.291 147.861 266.423 148.666 266.132 149.368L265.993 149.706C265.702 150.407 265.834 151.212 266.332 151.784L268.449 154.214C268.947 154.786 269.727 155.027 270.461 154.836L270.815 154.744C271.55 154.552 272.329 154.793 272.827 155.366L274.444 157.222C275.169 158.055 275.082 159.318 274.249 160.043L272.741 161.357C271.492 162.445 269.597 162.314 268.509 161.065L259.97 151.262C258.882 150.013 259.013 148.118 260.262 147.03Z" stroke="#0063A9" stroke-linecap="round"/>
<path d="M285.228 152.652H287.72V153.548H285.228V156.04H284.332V153.548H281.84V152.652H284.332V150.16H285.228V152.652ZM295.561 151.266C295.561 152.003 295.36 152.657 294.959 153.226L291.753 158H290.647L293.055 154.416C292.803 154.472 292.541 154.5 292.271 154.5C291.3 154.5 290.511 154.201 289.905 153.604C289.289 153.007 288.981 152.227 288.981 151.266C288.981 150.323 289.289 149.549 289.905 148.942C290.53 148.335 291.319 148.032 292.271 148.032C293.223 148.032 294.011 148.335 294.637 148.942C295.253 149.549 295.561 150.323 295.561 151.266ZM290.591 149.614C290.171 150.034 289.961 150.585 289.961 151.266C289.961 151.947 290.171 152.498 290.591 152.918C291.029 153.338 291.589 153.548 292.271 153.548C292.961 153.548 293.517 153.338 293.937 152.918C294.366 152.498 294.581 151.947 294.581 151.266C294.581 150.585 294.366 150.034 293.937 149.614C293.517 149.194 292.961 148.984 292.271 148.984C291.589 148.984 291.029 149.194 290.591 149.614ZM302.984 151.266C302.984 152.003 302.784 152.657 302.382 153.226L299.176 158H298.07L300.478 154.416C300.226 154.472 299.965 154.5 299.694 154.5C298.724 154.5 297.935 154.201 297.328 153.604C296.712 153.007 296.404 152.227 296.404 151.266C296.404 150.323 296.712 149.549 297.328 148.942C297.954 148.335 298.742 148.032 299.694 148.032C300.646 148.032 301.435 148.335 302.06 148.942C302.676 149.549 302.984 150.323 302.984 151.266ZM298.014 149.614C297.594 150.034 297.384 150.585 297.384 151.266C297.384 151.947 297.594 152.498 298.014 152.918C298.453 153.338 299.013 153.548 299.694 153.548C300.385 153.548 300.94 153.338 301.36 152.918C301.79 152.498 302.004 151.947 302.004 151.266C302.004 150.585 301.79 150.034 301.36 149.614C300.94 149.194 300.385 148.984 299.694 148.984C299.013 148.984 298.453 149.194 298.014 149.614ZM306.571 151.7C307.523 151.7 308.312 152.003 308.937 152.61C309.553 153.217 309.861 153.991 309.861 154.934C309.861 155.895 309.553 156.675 308.937 157.272C308.331 157.869 307.542 158.168 306.571 158.168C305.601 158.168 304.812 157.869 304.205 157.272C303.589 156.675 303.281 155.895 303.281 154.934C303.281 154.197 303.482 153.543 303.883 152.974L307.089 148.2H308.195L305.787 151.784C306.039 151.728 306.301 151.7 306.571 151.7ZM304.891 156.586C305.33 157.006 305.89 157.216 306.571 157.216C307.262 157.216 307.817 157.006 308.237 156.586C308.667 156.166 308.881 155.615 308.881 154.934C308.881 154.253 308.667 153.702 308.237 153.282C307.817 152.862 307.262 152.652 306.571 152.652C305.89 152.652 305.33 152.862 304.891 153.282C304.471 153.702 304.261 154.253 304.261 154.934C304.261 155.615 304.471 156.166 304.891 156.586ZM315.843 152.148H317.495C318.419 152.148 319.194 152.419 319.819 152.96C320.463 153.492 320.785 154.225 320.785 155.158C320.785 156.082 320.463 156.819 319.819 157.37C319.194 157.902 318.419 158.168 317.495 158.168C316.739 158.168 316.072 157.986 315.493 157.622C314.924 157.249 314.541 156.735 314.345 156.082L315.171 155.606C315.311 156.119 315.586 156.516 315.997 156.796C316.408 157.076 316.907 157.216 317.495 157.216C318.186 157.216 318.741 157.034 319.161 156.67C319.59 156.297 319.805 155.793 319.805 155.158C319.805 154.523 319.59 154.024 319.161 153.66C318.741 153.287 318.186 153.1 317.495 153.1H314.835L315.185 148.2H320.435V149.124H316.053L315.843 152.148ZM328.212 156.796C327.568 157.711 326.658 158.168 325.482 158.168C324.316 158.168 323.401 157.711 322.738 156.796C322.094 155.872 321.772 154.64 321.772 153.1C321.772 151.551 322.094 150.323 322.738 149.418C323.401 148.494 324.316 148.032 325.482 148.032C326.658 148.032 327.568 148.494 328.212 149.418C328.866 150.323 329.192 151.551 329.192 153.1C329.192 154.649 328.866 155.881 328.212 156.796ZM323.466 156.138C323.961 156.857 324.633 157.216 325.482 157.216C326.341 157.216 327.008 156.857 327.484 156.138C327.97 155.429 328.212 154.416 328.212 153.1C328.212 151.784 327.97 150.771 327.484 150.062C327.008 149.343 326.341 148.984 325.482 148.984C324.633 148.984 323.961 149.343 323.466 150.062C322.99 150.781 322.752 151.793 322.752 153.1C322.752 154.407 322.99 155.419 323.466 156.138ZM337.031 156.796C336.387 157.711 335.477 158.168 334.301 158.168C333.134 158.168 332.219 157.711 331.557 156.796C330.913 155.872 330.591 154.64 330.591 153.1C330.591 151.551 330.913 150.323 331.557 149.418C332.219 148.494 333.134 148.032 334.301 148.032C335.477 148.032 336.387 148.494 337.031 149.418C337.684 150.323 338.011 151.551 338.011 153.1C338.011 154.649 337.684 155.881 337.031 156.796ZM332.285 156.138C332.779 156.857 333.451 157.216 334.301 157.216C335.159 157.216 335.827 156.857 336.303 156.138C336.788 155.429 337.031 154.416 337.031 153.1C337.031 151.784 336.788 150.771 336.303 150.062C335.827 149.343 335.159 148.984 334.301 148.984C333.451 148.984 332.779 149.343 332.285 150.062C331.809 150.781 331.571 151.793 331.571 153.1C331.571 154.407 331.809 155.419 332.285 156.138ZM348.649 149.124L346.367 152.274C347.142 152.367 347.786 152.671 348.299 153.184C348.812 153.669 349.069 154.327 349.069 155.158C349.069 156.082 348.747 156.819 348.103 157.37C347.478 157.902 346.703 158.168 345.779 158.168C345.042 158.168 344.388 158 343.819 157.664C343.25 157.319 342.853 156.838 342.629 156.222L343.441 155.746C343.6 156.222 343.88 156.586 344.281 156.838C344.692 157.09 345.191 157.216 345.779 157.216C346.47 157.216 347.025 157.034 347.445 156.67C347.874 156.297 348.089 155.793 348.089 155.158C348.089 154.523 347.874 154.024 347.445 153.66C347.025 153.287 346.47 153.1 345.779 153.1V153.086L345.765 153.1H345.499L345.079 152.456L347.515 149.124H342.909V148.2H348.649V149.124ZM356.416 155.116H357.676V156.04H356.416V158H355.436V156.04H350.256V155.116L353.896 148.2H354.974L351.334 155.116H355.436V152.12H356.416V155.116ZM360.085 152.148H361.737C362.661 152.148 363.436 152.419 364.061 152.96C364.705 153.492 365.027 154.225 365.027 155.158C365.027 156.082 364.705 156.819 364.061 157.37C363.436 157.902 362.661 158.168 361.737 158.168C360.981 158.168 360.314 157.986 359.735 157.622C359.166 157.249 358.783 156.735 358.587 156.082L359.413 155.606C359.553 156.119 359.829 156.516 360.239 156.796C360.65 157.076 361.149 157.216 361.737 157.216C362.428 157.216 362.983 157.034 363.403 156.67C363.833 156.297 364.047 155.793 364.047 155.158C364.047 154.523 363.833 154.024 363.403 153.66C362.983 153.287 362.428 153.1 361.737 153.1H359.077L359.427 148.2H364.677V149.124H360.295L360.085 152.148ZM375.528 149.124L373.246 152.274C374.021 152.367 374.665 152.671 375.178 153.184C375.691 153.669 375.948 154.327 375.948 155.158C375.948 156.082 375.626 156.819 374.982 157.37C374.357 157.902 373.582 158.168 372.658 158.168C371.921 158.168 371.267 158 370.698 157.664C370.129 157.319 369.732 156.838 369.508 156.222L370.32 155.746C370.479 156.222 370.759 156.586 371.16 156.838C371.571 157.09 372.07 157.216 372.658 157.216C373.349 157.216 373.904 157.034 374.324 156.67C374.753 156.297 374.968 155.793 374.968 155.158C374.968 154.523 374.753 154.024 374.324 153.66C373.904 153.287 373.349 153.1 372.658 153.1V153.086L372.644 153.1H372.378L371.958 152.456L374.394 149.124H369.788V148.2H375.528V149.124ZM383.295 155.116H384.555V156.04H383.295V158H382.315V156.04H377.135V155.116L380.775 148.2H381.853L378.213 155.116H382.315V152.12H383.295V155.116ZM386.964 152.148H388.616C389.54 152.148 390.315 152.419 390.94 152.96C391.584 153.492 391.906 154.225 391.906 155.158C391.906 156.082 391.584 156.819 390.94 157.37C390.315 157.902 389.54 158.168 388.616 158.168C387.86 158.168 387.193 157.986 386.614 157.622C386.045 157.249 385.662 156.735 385.466 156.082L386.292 155.606C386.432 156.119 386.708 156.516 387.118 156.796C387.529 157.076 388.028 157.216 388.616 157.216C389.307 157.216 389.862 157.034 390.282 156.67C390.712 156.297 390.926 155.793 390.926 155.158C390.926 154.523 390.712 154.024 390.282 153.66C389.862 153.287 389.307 153.1 388.616 153.1H385.956L386.306 148.2H391.556V149.124H387.174L386.964 152.148Z" fill="black"/>
</svg>
